<?xml version="1.0" encoding="UTF-8"?>
<svg version="1.1" xmlns="http://www.w3.org/2000/svg" width="533" height="800">
<path d="M0 0 C4.499368 3.25266811 8.27467186 7.27475663 12.125 11.25 C15.19407171 14.3310369 17.77412046 16.65131504 22 18 C28.42340374 17.55917817 33.29264493 15.24401885 38.95117188 12.43945312 C43.89760612 10.12216143 47.52864798 9.50890716 53 10 C59.14036752 13.54251972 60.83552282 18.44290736 63 25 C64.60433809 24.52140759 66.20846416 24.04210442 67.8125 23.5625 C68.70582031 23.29566406 69.59914063 23.02882813 70.51953125 22.75390625 C72.35473055 22.19612127 74.18033726 21.60655425 76 21 C78.57265818 20.92970879 81.11641431 20.90629168 83.6875 20.9375 C84.38939453 20.94201172 85.09128906 20.94652344 85.81445312 20.95117188 C87.54300538 20.96293073 89.27151365 20.98086546 91 21 C90.38422853 26.33668606 86.13768415 28.61708549 82.1953125 31.76171875 C79.07212471 33.94947743 76.01396317 35.58049196 72.5625 37.1875 C67.84951182 39.42189595 65.06522942 40.98444283 63 46 C61.65354189 50.85267119 61.50396668 54.68243945 63.625 59.3125 C65.93856874 63.34517884 68.83459845 65.91729923 73 68 C78.08315807 68.51421665 83.26182313 68.80734489 87.9375 66.5 C91.68479454 63.44098405 93.75100741 60.69216136 95 56 C95.01944928 53.14095607 94.60482185 50.82250197 94 48 C90.11249087 47.58093443 90.11249087 47.58093443 88.10546875 49.53125 C87.47253906 50.1809375 86.83960938 50.830625 86.1875 51.5 C83.21934448 54.23557617 82.3160745 54.94818451 78.1875 55.625 C75 55 75 55 73.0625 53.875 C71.41560743 50.96871899 71.51652222 49.32196807 72 46 C73.91616177 43.22868233 76.2929092 40.98595809 78.71875 38.66015625 C79.41005005 37.97497421 80.1013501 37.28979218 80.81359863 36.58384705 C83.02872307 34.39564404 85.26403094 32.22937743 87.5 30.0625 C88.97527574 28.60875759 90.4492493 27.15369244 91.921875 25.69726562 C117.99953422 0.01974193 117.99953422 0.01974193 128.25 -0.5 C135.1943132 -0.27324692 140.95235276 1.92711345 145.88671875 6.90234375 C150.69616376 12.96946445 152.50537148 18.6973365 152.30859375 26.41796875 C151.32826668 34.62045222 146.55559943 40.254285 141 46 C140.19820313 46.886875 139.39640625 47.77375 138.5703125 48.6875 C137.72210938 49.595 136.87390625 50.5025 136 51.4375 C135.21625 52.28183594 134.4325 53.12617188 133.625 53.99609375 C130.3780064 56.47482547 128.03619599 56.77760702 124 57 C122.65667272 56.70955086 121.31774196 56.39044206 120 56 C119.34 56.33 118.68 56.66 118 57 C115.8627705 63.49642446 113.8742671 70.33937025 116 77 C119.06713838 80.64959976 122.79837405 82.76687831 126.9375 85 C137.48421053 90.72631579 137.48421053 90.72631579 141 96 C142.22715671 102.85953483 140.18891451 107.48638894 136.5 113.125 C133.20253104 118.22468924 131.1574164 121.68062303 132 128 C132.9516657 130.37377092 132.9516657 130.37377092 134.5 132.375 C135.04140625 133.13039063 135.5828125 133.88578125 136.140625 134.6640625 C138.69670586 137.87527333 141.43075841 140.89265415 144.265625 143.859375 C146.88570541 147.09316794 148.02613455 149.7716761 147.9375 153.9375 C145.94161451 160.45739262 140.62648666 164.32989473 135.3125 168.1875 C130.66284462 171.57558813 130.66284462 171.57558813 127 176 C126.1442432 182.35705055 127.97908063 187.56783334 130.22094727 193.45605469 C131.82765443 197.81768939 132.63608462 201.37248438 132 206 C128.67219923 211.32575382 125.80037735 212.90795961 119.6875 214.6875 C118.35276887 215.09864775 117.01813255 215.51010341 115.68359375 215.921875 C113.57257095 216.53973533 111.4609566 217.15560016 109.34765625 217.765625 C106.08324158 218.81121033 104.3075942 219.53525719 102.38671875 222.4375 C100.24716951 227.93403214 99.87246707 233.5522829 99.27148438 239.38867188 C98.6379223 244.64836179 98.14459884 248.30860244 94 252 C90.13248304 254.1798732 87.17090377 254.12811816 82.8125 253.6875 C81.67425781 253.58308594 80.53601563 253.47867188 79.36328125 253.37109375 C77.27415019 253.14058568 75.18726276 252.88702843 73.10546875 252.59765625 C72.24566406 252.48292969 71.38585937 252.36820313 70.5 252.25 C69.37078125 252.07210937 69.37078125 252.07210937 68.21875 251.890625 C64.93960526 252.05227298 63.55355768 252.90999896 61 255 C58.81330847 258.4039093 57.19039975 262.09200053 55.48242188 265.75195312 C53.09088924 270.61544161 51.11113935 273.62493524 46 276 C40.5994011 276.68039041 37.31053428 275.5105885 32.5625 273 C25.52898481 269.48006489 25.52898481 269.48006489 18 270 C15.29087632 272.08589804 12.88786447 274.29940354 10.4921875 276.73828125 C6.8176338 280.07302513 3.61572372 281.94015838 -1.375 282.125 C-6.38145394 280.57127292 -9.24013872 277.5364269 -13 274 C-16.32147249 271.28859388 -17.89003664 270.02176399 -22.1875 269.9375 C-25.57561505 270.88172879 -28.34401959 272.05142867 -31.5 273.5625 C-35.89382642 275.63903441 -39.06686877 276.789301 -44 276 C-51.76049552 273.04362075 -55.08094629 263.10330355 -58.66796875 256.22265625 C-59.80529721 253.87347154 -59.80529721 253.87347154 -62 253 C-67.78693551 252.67850358 -73.2995058 252.98657881 -79 254 C-84.4327545 254.48487058 -88.32998995 254.14954166 -93 251 C-97.07833317 245.84895389 -97.07744153 239.59957219 -97.81640625 233.3046875 C-98.64743588 226.67969478 -98.64743588 226.67969478 -102 221 C-106.44263755 217.62644635 -111.72321668 216.4773403 -117.02929688 215.0703125 C-122.08535299 213.61340154 -125.19538314 211.65940248 -129 208 C-131.07001635 203.85996729 -130.19008661 199.6340746 -128.90625 195.3515625 C-128.21015625 193.50691406 -128.21015625 193.50691406 -127.5 191.625 C-124.2285463 183.42272241 -124.2285463 183.42272241 -125 175 C-127.97423044 171.52316601 -131.40177411 168.80600286 -135 166 C-136.50857512 164.69736523 -138.0095438 163.38582784 -139.5 162.0625 C-140.1290625 161.51722656 -140.758125 160.97195313 -141.40625 160.41015625 C-144.93020612 157.29214605 -144.93020612 157.29214605 -145.44140625 155.15234375 C-145.77878902 148.98150398 -144.05363225 145.89730132 -140.0859375 141.265625 C-138.65543341 139.71189396 -137.22304303 138.15989812 -135.7890625 136.609375 C-135.07492188 135.83078125 -134.36078125 135.0521875 -133.625 134.25 C-132.95726562 133.55390625 -132.28953125 132.8578125 -131.6015625 132.140625 C-129.73725877 129.64882392 -129.21053252 128.09578506 -129 125 C-129.5501016 122.62742828 -129.5501016 122.62742828 -130.625 120.3125 C-130.99496094 119.44625 -131.36492187 118.58 -131.74609375 117.6875 C-132.99018223 115.02104245 -134.3242728 112.4197217 -135.6875 109.8125 C-137.70010638 105.83090411 -139 102.54484902 -139 98 C-137.02204639 92.78978072 -134.72613952 90.7396269 -129.9375 88 C-129.36475342 87.66460205 -128.79200684 87.3292041 -128.2019043 86.98364258 C-126.4760872 85.97501702 -124.73810886 84.98729313 -123 84 C-121.10046365 82.902216 -119.20416871 81.79878643 -117.3125 80.6875 C-116.52488281 80.23761719 -115.73726562 79.78773438 -114.92578125 79.32421875 C-112.72090972 77.9836179 -112.72090972 77.9836179 -111 75 C-110.43038733 68.93700411 -111.0949285 62.99609867 -112 57 C-112.4308544 51.91787647 -112.37437229 48.07251828 -109 44 C-105.41381745 41.47112299 -102.7999052 40.60053932 -98.4375 40.375 C-97.39335937 40.30796875 -96.34921875 40.2409375 -95.2734375 40.171875 C-93.09114583 40.05729167 -90.90885417 39.94270833 -88.7265625 39.828125 C-87.68242187 39.76109375 -86.63828125 39.6940625 -85.5625 39.625 C-84.61503906 39.57601562 -83.66757813 39.52703125 -82.69140625 39.4765625 C-79.51756825 38.91457667 -77.58070721 37.91760883 -75 36 C-73.28216186 32.28946961 -72.18823287 28.7092957 -71.140625 24.76171875 C-68.33394948 14.60477413 -68.33394948 14.60477413 -65.375 11.6875 C-60.6049745 9.30248725 -57.22887659 8.88441507 -52 10 C-48.71102502 11.26136635 -45.55828664 12.78266135 -42.44165039 14.42089844 C-38.24404282 16.60237643 -34.75696467 17.96262766 -30 18 C-24.54192497 15.63028081 -21.2059602 12.44747807 -17.4375 7.9375 C-12.67500266 2.24607305 -7.77561177 -2.79922024 0 0 Z " fill="#7E7E7E" transform="translate(268,236)"/>
<path d="M0 0 C6.73943313 4.5962934 12.40047413 10.626124 14.5390625 18.625 C16.16342516 28.05267349 14.7587735 37.16521993 9.375 45.1875 C5.16778175 50.39895376 -0.75672873 53.83557624 -7.0625 55.9375 C-18.56662877 56.56390282 -27.4888177 56.85344248 -36.75 49.375 C-43.58170518 42.9798632 -46.58207036 35.51048378 -47.375 26.3125 C-47.21778327 17.98001321 -43.6861329 10.60167277 -37.984375 4.65625 C-27.31296549 -4.88728696 -12.66719323 -7.18881808 0 0 Z " fill="#FCFCFC" transform="translate(325.0625,378.0625)"/>
<path d="M0 0 C5.98785677 4.9233489 9.94137828 10.77884784 11.671875 18.421875 C12.60458163 28.15876697 11.0457818 36.22993592 5.171875 44.171875 C0.24792642 49.51353644 -8.38439605 53.82828833 -15.60546875 54.6953125 C-24.5225953 55.0357608 -32.58428449 52.52300092 -39.765625 47.109375 C-46.93625962 39.58895332 -49.83759627 31.89746457 -49.64453125 21.5234375 C-48.87789593 14.00851846 -45.72254107 7.69641516 -40.328125 2.421875 C-28.13607559 -7.12971173 -13.24011748 -8.97484474 0 0 Z " fill="#FBFBFB" transform="translate(247.328125,310.578125)"/>
<path d="M0 0 C4.32691343 0.53971838 5.7799603 2.40590527 8.88110352 5.359375 C8.36313062 10.08275482 6.18001804 13.32328509 3.52563477 17.125 C2.85263084 18.11043037 2.85263084 18.11043037 2.16603088 19.11576843 C1.19341571 20.53802858 0.21708998 21.95775683 -0.76251221 23.37521362 C-2.87456436 26.43157311 -4.96860581 29.50011899 -7.06390381 32.56797791 C-8.15124189 34.15963988 -9.23950984 35.75066698 -10.32867432 37.34107971 C-15.09048983 44.29802656 -19.77541004 51.30408075 -24.43719482 58.32830811 C-33.79163316 72.42091867 -43.22633639 86.45912857 -52.68139648 100.484375 C-53.63444672 101.89914627 -53.63444672 101.89914627 -54.60675049 103.34249878 C-56.42350818 106.03896737 -58.24166063 108.7344896 -60.06030273 111.4296875 C-60.59896469 112.22932419 -61.13762665 113.02896088 -61.69261169 113.85282898 C-64.76787379 118.40559639 -67.90547392 122.90296553 -71.11889648 127.359375 C-79.3531698 126.56761795 -79.3531698 126.56761795 -82.11889648 123.359375 C-82.81719526 118.02516162 -81.04019224 115.01562349 -78.01342773 110.84375 C-77.08711125 109.51200504 -76.16222882 108.17926184 -75.23852539 106.84570312 C-74.73532776 106.12680908 -74.23213013 105.40791504 -73.71368408 104.66723633 C-70.81697845 100.47533333 -68.04539412 96.20096339 -65.25561523 91.9375 C-64.02620356 90.06744134 -62.79637975 88.19765356 -61.56616211 86.328125 C-59.6901092 83.47513907 -57.81456904 80.6218215 -55.94042969 77.76757812 C-47.94280079 65.58991962 -39.83917238 53.49647638 -31.58248901 41.49304199 C-29.36510124 38.26047076 -27.16837344 35.01409158 -24.97436523 31.765625 C-24.58123642 31.18423767 -24.1881076 30.60285034 -23.7830658 30.00384521 C-22.22948372 27.70618325 -20.67638766 25.40820163 -19.12597656 23.10839844 C-17.20465014 20.25946686 -15.27618218 17.41616795 -13.32739258 14.5859375 C-11.8523158 12.43088392 -10.40202551 10.25865859 -8.97680664 8.0703125 C-8.2979541 7.06226563 -7.61910156 6.05421875 -6.91967773 5.015625 C-6.32968994 4.11650391 -5.73970215 3.21738281 -5.13183594 2.29101562 C-3.11889648 0.359375 -3.11889648 0.359375 0 0 Z " fill="#FCFCFC" transform="translate(304.118896484375,308.640625)"/>
<path d="M0 0 C5.93585672 3.33125187 9.16956474 7.82613536 12.0625 13.875 C13.701964 22.07232 13.10477889 28.80389878 8.6875 36 C6.55422322 38.88020659 4.17673884 41.42557808 1.6875 44 C0.88570313 44.886875 0.08390625 45.77375 -0.7421875 46.6875 C-1.59039062 47.595 -2.43859375 48.5025 -3.3125 49.4375 C-4.09625 50.28183594 -4.88 51.12617188 -5.6875 51.99609375 C-8.93582583 54.47584249 -11.26916859 54.82337277 -15.3125 55 C-17.25 53.875 -17.25 53.875 -18.3125 52 C-18.76324142 48.69456296 -18.59074849 47.38903262 -16.625 44.640625 C-15.861875 43.85171875 -15.09875 43.0628125 -14.3125 42.25 C-13.4978125 41.37988281 -12.683125 40.50976562 -11.84375 39.61328125 C-10.23329271 37.95063321 -8.60960771 36.30062217 -6.96875 34.66796875 C-2.83656955 30.39355745 -0.17786966 27.18756342 0.00390625 21.08203125 C-0.51358292 17.67682471 -2.08450061 15.54628502 -4.3125 13 C-7.77655709 11.26797146 -11.52467247 11.52569812 -15.3125 12 C-18.14583333 13.58333333 -18.14583333 13.58333333 -20.3125 16 C-23.58108449 19.27711598 -26.86269182 22.54088439 -30.1484375 25.80078125 C-31.99486349 27.63794865 -33.84121546 29.47519045 -35.6875 31.3125 C-36.60789062 32.22451172 -37.52828125 33.13652344 -38.4765625 34.07617188 C-43.10009558 38.68319234 -47.59365176 43.30868505 -51.76416016 48.33276367 C-54.71055193 51.50540786 -56.49406942 52.91384941 -60.875 53.375 C-64.3125 53 -64.3125 53 -66.25 51.875 C-67.89689257 48.96871899 -67.79597778 47.32196807 -67.3125 44 C-65.39633823 41.22868233 -63.0195908 38.98595809 -60.59375 36.66015625 C-59.90244995 35.97497421 -59.2111499 35.28979218 -58.49890137 34.58384705 C-56.28377693 32.39564404 -54.04846906 30.22937743 -51.8125 28.0625 C-50.33722426 26.60875759 -48.8632507 25.15369244 -47.390625 23.69726562 C-16.04780455 -7.16463069 -16.04780455 -7.16463069 0 0 Z " fill="#777777" transform="translate(407.3125,238)"/>
<path d="M0 0 C3.61725017 2.15495755 5.3991928 4.16089601 7 8 C7.64813023 12.4418525 6.82763698 15.85210349 4.203125 19.4921875 C1.87136528 22.07320429 -0.53478728 24.54634296 -3 27 C-4.53629879 28.58936174 -6.05826375 30.19275989 -7.5625 31.8125 C-8.22378906 32.49957031 -8.88507813 33.18664062 -9.56640625 33.89453125 C-11.32890137 36.48304588 -11.36060311 37.92725518 -11 41 C-10.67 41.66 -10.34 42.32 -10 43 C-11.175625 43.1546875 -11.175625 43.1546875 -12.375 43.3125 C-15.33045181 43.77595022 -15.33045181 43.77595022 -17 47 C-17.01417969 46.10539062 -17.02835937 45.21078125 -17.04296875 44.2890625 C-17.33594422 36.86173845 -18.17051471 31.34280203 -21.94140625 24.890625 C-23 23 -23 23 -23 21 C-31.20767624 27.84255195 -31.20767624 27.84255195 -38 36 C-38.99 35.01 -39.98 34.02 -41 33 C-39.41636918 29.16394511 -36.97385878 26.71554351 -34.0625 23.796875 C-33.58176025 23.3142218 -33.10102051 22.8315686 -32.60571289 22.33428955 C-31.59278907 21.32000936 -30.57735362 20.30823196 -29.55957031 19.29882812 C-27.99826835 17.74828028 -26.44797503 16.18729497 -24.8984375 14.625 C-23.91209939 13.63998266 -22.9251415 12.65558547 -21.9375 11.671875 C-20.58978516 10.32754395 -20.58978516 10.32754395 -19.21484375 8.95605469 C-17 7 -17 7 -15 7 C-14.7525 6.401875 -14.505 5.80375 -14.25 5.1875 C-10.95325395 -0.58180558 -6.17843072 -1.00399499 0 0 Z " fill="#FAFAFA" transform="translate(401,249)"/>
<path d="M0 0 C3.47207371 1.9005742 5.63204551 3.95795463 7.8125 7.3125 C8.225 7.93125 8.6375 8.55 9.0625 9.1875 C10.58222516 13.49338796 10.21473653 17.19517631 8.6875 21.4375 C5.89234174 25.72340933 2.76474283 28.66175239 -2.1875 30.3125 C-7.4549928 30.81692239 -11.81929168 30.9841659 -16.625 28.625 C-21.85315731 23.90690682 -23.8687877 20.80944371 -24.27734375 13.73828125 C-24.1144927 9.34130293 -22.59938718 6.7277171 -19.53125 3.65234375 C-13.53440559 -1.72194689 -7.69809001 -3.56180284 0 0 Z " fill="#7E7F7F" transform="translate(316.1875,389.6875)"/>
<path d="M0 0 C5.84620354 0.67456195 9.81459547 3.83194013 13.75 8.0625 C15.80840495 12.60814427 16.04185913 16.46387371 15.25 21.375 C13.06685374 25.74129252 10.46941497 28.89838687 6.25 31.375 C1.52406628 32.53075599 -2.4068515 32.80582122 -7.0625 31.3125 C-10.80266043 28.61610527 -13.66307115 25.5488577 -15.75 21.375 C-16.29360446 16.42017906 -16.31437074 12.50374148 -14.0625 8 C-9.63789663 2.97747725 -6.49515496 0.88570295 0 0 Z " fill="#7D7D7D" transform="translate(228.75,318.625)"/>
<path d="M0 0 C-0.375 1.9375 -0.375 1.9375 -1 4 C-1.99 4.495 -1.99 4.495 -3 5 C-3.33 4.01 -3.66 3.02 -4 2 C-9.80809779 1.76293478 -14.38178059 2.34758253 -20 4 C-22.19921875 3.55859375 -22.19921875 3.55859375 -24 3 C-15.93475404 -0.39589303 -8.61738853 -0.30654742 0 0 Z " fill="#484847" transform="translate(359,257)"/>
<path d="M0 0 C1.71927255 5.75695809 0.82139237 11.12722539 -1.5625 16.5625 C-2.2740625 17.7690625 -2.2740625 17.7690625 -3 19 C-3.66 19 -4.32 19 -5 19 C-4.35561067 16.39546825 -3.7095496 13.7913709 -3.0625 11.1875 C-2.88009766 10.44951172 -2.69769531 9.71152344 -2.50976562 8.95117188 C-1.7577385 5.92939016 -0.98514427 2.95543282 0 0 Z " fill="#5A5956" transform="translate(199,253)"/>
<path d="M0 0 C0 0.66 0 1.32 0 2 C-0.99 2.33 -1.98 2.66 -3 3 C-5.83496091 5.15997022 -7.71710653 6.7849827 -8.54296875 10.33203125 C-8.78518375 12.56111132 -8.9462927 14.75894088 -9 17 C-11 14 -11 14 -10.9375 10.625 C-9.6902575 5.802329 -5.55194152 0 0 0 Z " fill="#4C4C4B" transform="translate(140,324)"/>
<path d="M0 0 C0.99 0 1.98 0 3 0 C7.77676538 11.33712984 7.77676538 11.33712984 6 18 C5 15 5 15 4.125 11.125 C3.28034795 7.64400974 1.95443184 5.02048557 0 2 C0 1.34 0 0.68 0 0 Z " fill="#4D4C4C" transform="translate(134,348)"/>
<path d="M0 0 C2.97 0 5.94 0 9 0 C8.67 1.32 8.34 2.64 8 4 C7.01 4.495 7.01 4.495 6 5 C5.67 4.01 5.34 3.02 5 2 C3.35 1.67 1.7 1.34 0 1 C0 0.67 0 0.34 0 0 Z " fill="#535352" transform="translate(350,257)"/>
<path d="" fill="#FFFFFF" transform="translate(0,0)"/>
<path d="M0 0 C2 1 2 1 2 1 Z " fill="#FFFFFF" transform="translate(207,491)"/>
<path d="M0 0 C2 1 2 1 2 1 Z " fill="#7F7F7F" transform="translate(300,250)"/>
<path d="M0 0 C2 1 2 1 2 1 Z " fill="#000000" transform="translate(517,167)"/>
<path d="M0 0 C2 1 2 1 2 1 Z " fill="#000000" transform="translate(496,167)"/>
<path d="M0 0 C2 1 2 1 2 1 Z " fill="#000000" transform="translate(467,167)"/>
<path d="M0 0 C2 1 2 1 2 1 Z " fill="#000000" transform="translate(463,167)"/>
<path d="M0 0 C2 1 2 1 2 1 Z " fill="#000000" transform="translate(442,167)"/>
<path d="M0 0 C2 1 2 1 2 1 Z " fill="#000000" transform="translate(363,167)"/>
<path d="M0 0 C2 1 2 1 2 1 Z " fill="#000000" transform="translate(338,167)"/>
<path d="M0 0 C2 1 2 1 2 1 Z " fill="#000000" transform="translate(284,167)"/>
<path d="M0 0 C2 1 2 1 2 1 Z " fill="#000000" transform="translate(263,167)"/>
<path d="M0 0 C2 1 2 1 2 1 Z " fill="#000000" transform="translate(259,167)"/>
<path d="M0 0 C2 1 2 1 2 1 Z " fill="#000000" transform="translate(234,167)"/>
<path d="M0 0 C2 1 2 1 2 1 Z " fill="#000000" transform="translate(184,167)"/>
<path d="M0 0 C2 1 2 1 2 1 Z " fill="#000000" transform="translate(180,167)"/>
<path d="M0 0 C2 1 2 1 2 1 Z " fill="#000000" transform="translate(159,167)"/>
<path d="M0 0 C2 1 2 1 2 1 Z " fill="#000000" transform="translate(155,167)"/>
<path d="M0 0 C2 1 2 1 2 1 Z " fill="#000000" transform="translate(130,167)"/>
<path d="M0 0 C2 1 2 1 2 1 Z " fill="#000000" transform="translate(76,167)"/>
<path d="M0 0 C2 1 2 1 2 1 Z " fill="#000000" transform="translate(1,167)"/>
<path d="M0 0 C2 1 2 1 2 1 Z " fill="#000000" transform="translate(298,104)"/>
<path d="M0 0 C2 1 2 1 2 1 Z " fill="#000000" transform="translate(219,104)"/>
<path d="" fill="#000000" transform="translate(0,0)"/>
<path d="" fill="#000000" transform="translate(0,0)"/>
<path d="" fill="#000000" transform="translate(0,0)"/>
<path d="" fill="#000000" transform="translate(0,0)"/>
<path d="" fill="#000000" transform="translate(0,0)"/>
<path d="" fill="#000000" transform="translate(0,0)"/>
<path d="" fill="#000000" transform="translate(0,0)"/>
<path d="" fill="#000000" transform="translate(0,0)"/>
<path d="" fill="#000000" transform="translate(0,0)"/>
<path d="" fill="#000000" transform="translate(0,0)"/>
<path d="" fill="#000000" transform="translate(0,0)"/>
<path d="" fill="#000000" transform="translate(0,0)"/>
<path d="" fill="#000000" transform="translate(0,0)"/>
<path d="" fill="#000000" transform="translate(0,0)"/>
<path d="" fill="#000000" transform="translate(0,0)"/>
<path d="" fill="#000000" transform="translate(0,0)"/>
<path d="" fill="#000000" transform="translate(0,0)"/>
<path d="" fill="#000000" transform="translate(0,0)"/>
<path d="" fill="#000000" transform="translate(0,0)"/>
<path d="" fill="#000000" transform="translate(0,0)"/>
<path d="" fill="#0000FF" transform="translate(0,0)"/>
<path d="" fill="#000000" transform="translate(0,0)"/>
<path d="" fill="#000000" transform="translate(0,0)"/>
<path d="" fill="#000000" transform="translate(0,0)"/>
<path d="" fill="#000000" transform="translate(0,0)"/>
<path d="" fill="#000000" transform="translate(0,0)"/>
<path d="" fill="#000000" transform="translate(0,0)"/>
<path d="" fill="#000000" transform="translate(0,0)"/>
<path d="" fill="#000000" transform="translate(0,0)"/>
<path d="" fill="#000000" transform="translate(0,0)"/>
<path d="" fill="#000000" transform="translate(0,0)"/>
<path d="" fill="#000000" transform="translate(0,0)"/>
<path d="" fill="#000000" transform="translate(0,0)"/>
<path d="" fill="#000000" transform="translate(0,0)"/>
<path d="" fill="#000000" transform="translate(0,0)"/>
<path d="" fill="#000000" transform="translate(0,0)"/>
<path d="" fill="#000000" transform="translate(0,0)"/>
<path d="" fill="#000000" transform="translate(0,0)"/>
<path d="" fill="#000000" transform="translate(0,0)"/>
<path d="" fill="#000000" transform="translate(0,0)"/>
<path d="" fill="#000000" transform="translate(0,0)"/>
<path d="" fill="#000000" transform="translate(0,0)"/>
<path d="" fill="#000000" transform="translate(0,0)"/>
<path d="" fill="#000000" transform="translate(0,0)"/>
<path d="" fill="#000000" transform="translate(0,0)"/>
<path d="" fill="#000000" transform="translate(0,0)"/>
<path d="" fill="#000000" transform="translate(0,0)"/>
<path d="" fill="#000000" transform="translate(0,0)"/>
<path d="" fill="#000000" transform="translate(0,0)"/>
<path d="" fill="#000000" transform="translate(0,0)"/>
<path d="" fill="#000000" transform="translate(0,0)"/>
<path d="" fill="#000000" transform="translate(0,0)"/>
<path d="" fill="#000000" transform="translate(0,0)"/>
<path d="" fill="#000000" transform="translate(0,0)"/>
<path d="" fill="#000000" transform="translate(0,0)"/>
<path d="" fill="#000000" transform="translate(0,0)"/>
<path d="" fill="#000000" transform="translate(0,0)"/>
<path d="" fill="#000000" transform="translate(0,0)"/>
<path d="" fill="#000000" transform="translate(0,0)"/>
<path d="" fill="#000000" transform="translate(0,0)"/>
<path d="" fill="#000000" transform="translate(0,0)"/>
<path d="" fill="#000000" transform="translate(0,0)"/>
<path d="" fill="#000000" transform="translate(0,0)"/>
<path d="" fill="#000000" transform="translate(0,0)"/>
<path d="" fill="#000000" transform="translate(0,0)"/>
<path d="" fill="#000000" transform="translate(0,0)"/>
<path d="" fill="#000000" transform="translate(0,0)"/>
<path d="" fill="#000000" transform="translate(0,0)"/>
<path d="" fill="#000000" transform="translate(0,0)"/>
<path d="" fill="#000000" transform="translate(0,0)"/>
<path d="" fill="#000000" transform="translate(0,0)"/>
<path d="" fill="#000000" transform="translate(0,0)"/>
<path d="" fill="#000000" transform="translate(0,0)"/>
<path d="" fill="#000000" transform="translate(0,0)"/>
<path d="" fill="#000000" transform="translate(0,0)"/>
<path d="" fill="#000000" transform="translate(0,0)"/>
<path d="" fill="#FFFFFF" transform="translate(0,0)"/>
<path d="" fill="#000000" transform="translate(0,0)"/>
<path d="" fill="#000000" transform="translate(0,0)"/>
<path d="" fill="#000000" transform="translate(0,0)"/>
<path d="" fill="#000000" transform="translate(0,0)"/>
<path d="" fill="#000000" transform="translate(0,0)"/>
<path d="" fill="#000000" transform="translate(0,0)"/>
<path d="" fill="#000000" transform="translate(0,0)"/>
<path d="" fill="#000000" transform="translate(0,0)"/>
<path d="" fill="#000000" transform="translate(0,0)"/>
<path d="" fill="#000000" transform="translate(0,0)"/>
<path d="" fill="#000000" transform="translate(0,0)"/>
<path d="" fill="#000000" transform="translate(0,0)"/>
<path d="" fill="#000000" transform="translate(0,0)"/>
<path d="" fill="#000000" transform="translate(0,0)"/>
<path d="" fill="#000000" transform="translate(0,0)"/>
<path d="" fill="#FFFFFF" transform="translate(0,0)"/>
<path d="" fill="#000000" transform="translate(0,0)"/>
<path d="" fill="#FFFFFF" transform="translate(0,0)"/>
<path d="" fill="#FFFFFF" transform="translate(0,0)"/>
<path d="" fill="#000000" transform="translate(0,0)"/>
<path d="" fill="#FFFFFF" transform="translate(0,0)"/>
<path d="" fill="#000000" transform="translate(0,0)"/>
<path d="" fill="#FFFFFF" transform="translate(0,0)"/>
<path d="" fill="#000000" transform="translate(0,0)"/>
<path d="" fill="#000000" transform="translate(0,0)"/>
<path d="" fill="#000000" transform="translate(0,0)"/>
<path d="" fill="#000000" transform="translate(0,0)"/>
<path d="" fill="#000000" transform="translate(0,0)"/>
<path d="" fill="#000000" transform="translate(0,0)"/>
<path d="" fill="#000000" transform="translate(0,0)"/>
<path d="" fill="#000000" transform="translate(0,0)"/>
<path d="" fill="#000000" transform="translate(0,0)"/>
<path d="" fill="#000000" transform="translate(0,0)"/>
<path d="" fill="#000000" transform="translate(0,0)"/>
<path d="" fill="#000000" transform="translate(0,0)"/>
<path d="" fill="#FFFFFF" transform="translate(0,0)"/>
<path d="" fill="#000000" transform="translate(0,0)"/>
<path d="" fill="#000000" transform="translate(0,0)"/>
<path d="" fill="#000000" transform="translate(0,0)"/>
<path d="" fill="#FFFFFF" transform="translate(0,0)"/>
<path d="" fill="#000000" transform="translate(0,0)"/>
<path d="" fill="#FFFFFF" transform="translate(0,0)"/>
<path d="" fill="#FFFFFF" transform="translate(0,0)"/>
<path d="" fill="#FFFFFF" transform="translate(0,0)"/>
<path d="" fill="#000000" transform="translate(0,0)"/>
<path d="" fill="#000000" transform="translate(0,0)"/>
<path d="" fill="#FFFFFF" transform="translate(0,0)"/>
<path d="" fill="#FFFFFF" transform="translate(0,0)"/>
<path d="" fill="#000000" transform="translate(0,0)"/>
<path d="" fill="#000000" transform="translate(0,0)"/>
<path d="" fill="#000000" transform="translate(0,0)"/>
<path d="" fill="#FFFFFF" transform="translate(0,0)"/>
<path d="" fill="#000000" transform="translate(0,0)"/>
<path d="" fill="#000000" transform="translate(0,0)"/>
<path d="" fill="#000000" transform="translate(0,0)"/>
<path d="" fill="#000000" transform="translate(0,0)"/>
<path d="" fill="#000000" transform="translate(0,0)"/>
<path d="" fill="#FFFFFF" transform="translate(0,0)"/>
<path d="" fill="#000000" transform="translate(0,0)"/>
<path d="" fill="#000000" transform="translate(0,0)"/>
<path d="" fill="#000000" transform="translate(0,0)"/>
<path d="" fill="#FFFFFF" transform="translate(0,0)"/>
<path d="" fill="#FFFFFF" transform="translate(0,0)"/>
<path d="" fill="#000000" transform="translate(0,0)"/>
<path d="" fill="#000000" transform="translate(0,0)"/>
<path d="" fill="#000000" transform="translate(0,0)"/>
<path d="" fill="#000000" transform="translate(0,0)"/>
<path d="" fill="#000000" transform="translate(0,0)"/>
<path d="" fill="#000000" transform="translate(0,0)"/>
<path d="" fill="#000000" transform="translate(0,0)"/>
<path d="" fill="#FFFFFF" transform="translate(0,0)"/>
<path d="" fill="#000000" transform="translate(0,0)"/>
<path d="" fill="#000000" transform="translate(0,0)"/>
<path d="" fill="#000000" transform="translate(0,0)"/>
<path d="" fill="#000000" transform="translate(0,0)"/>
<path d="" fill="#FFFFFF" transform="translate(0,0)"/>
<path d="" fill="#FFFFFF" transform="translate(0,0)"/>
<path d="" fill="#000000" transform="translate(0,0)"/>
<path d="" fill="#000000" transform="translate(0,0)"/>
<path d="" fill="#FFFFFF" transform="translate(0,0)"/>
<path d="" fill="#FFFFFF" transform="translate(0,0)"/>
<path d="" fill="#000000" transform="translate(0,0)"/>
<path d="" fill="#000000" transform="translate(0,0)"/>
<path d="" fill="#000000" transform="translate(0,0)"/>
<path d="" fill="#FFFFFF" transform="translate(0,0)"/>
<path d="" fill="#000000" transform="translate(0,0)"/>
<path d="" fill="#000000" transform="translate(0,0)"/>
<path d="" fill="#FFFFFF" transform="translate(0,0)"/>
<path d="" fill="#000000" transform="translate(0,0)"/>
<path d="" fill="#000000" transform="translate(0,0)"/>
<path d="" fill="#000000" transform="translate(0,0)"/>
<path d="" fill="#000000" transform="translate(0,0)"/>
<path d="" fill="#FFFFFF" transform="translate(0,0)"/>
<path d="" fill="#000000" transform="translate(0,0)"/>
<path d="" fill="#FFFFFF" transform="translate(0,0)"/>
<path d="" fill="#FFFFFF" transform="translate(0,0)"/>
<path d="" fill="#000000" transform="translate(0,0)"/>
<path d="" fill="#000000" transform="translate(0,0)"/>
<path d="" fill="#FFFFFF" transform="translate(0,0)"/>
<path d="" fill="#FFFFFF" transform="translate(0,0)"/>
<path d="" fill="#000000" transform="translate(0,0)"/>
<path d="" fill="#000000" transform="translate(0,0)"/>
<path d="" fill="#000000" transform="translate(0,0)"/>
<path d="" fill="#FFFFFF" transform="translate(0,0)"/>
<path d="" fill="#000000" transform="translate(0,0)"/>
<path d="" fill="#000000" transform="translate(0,0)"/>
<path d="" fill="#000000" transform="translate(0,0)"/>
<path d="" fill="#000000" transform="translate(0,0)"/>
<path d="" fill="#000000" transform="translate(0,0)"/>
<path d="" fill="#FFFFFF" transform="translate(0,0)"/>
<path d="" fill="#FFFFFF" transform="translate(0,0)"/>
<path d="" fill="#000000" transform="translate(0,0)"/>
<path d="" fill="#000000" transform="translate(0,0)"/>
<path d="" fill="#FFFFFF" transform="translate(0,0)"/>
<path d="" fill="#FFFFFF" transform="translate(0,0)"/>
<path d="" fill="#000000" transform="translate(0,0)"/>
<path d="" fill="#000000" transform="translate(0,0)"/>
<path d="" fill="#FFFFFF" transform="translate(0,0)"/>
<path d="" fill="#FFFFFF" transform="translate(0,0)"/>
<path d="" fill="#000000" transform="translate(0,0)"/>
<path d="" fill="#000000" transform="translate(0,0)"/>
<path d="" fill="#000000" transform="translate(0,0)"/>
<path d="" fill="#FFFFFF" transform="translate(0,0)"/>
<path d="" fill="#FFFFFF" transform="translate(0,0)"/>
<path d="" fill="#000000" transform="translate(0,0)"/>
<path d="" fill="#000000" transform="translate(0,0)"/>
<path d="" fill="#000000" transform="translate(0,0)"/>
<path d="" fill="#000000" transform="translate(0,0)"/>
<path d="" fill="#FFFFFF" transform="translate(0,0)"/>
<path d="" fill="#000000" transform="translate(0,0)"/>
<path d="" fill="#000000" transform="translate(0,0)"/>
<path d="" fill="#FFFFFF" transform="translate(0,0)"/>
<path d="" fill="#000000" transform="translate(0,0)"/>
<path d="" fill="#000000" transform="translate(0,0)"/>
<path d="" fill="#000000" transform="translate(0,0)"/>
<path d="" fill="#000000" transform="translate(0,0)"/>
<path d="" fill="#000000" transform="translate(0,0)"/>
<path d="" fill="#000000" transform="translate(0,0)"/>
<path d="" fill="#000000" transform="translate(0,0)"/>
<path d="" fill="#000000" transform="translate(0,0)"/>
<path d="" fill="#000000" transform="translate(0,0)"/>
<path d="" fill="#000000" transform="translate(0,0)"/>
<path d="" fill="#000000" transform="translate(0,0)"/>
<path d="" fill="#000000" transform="translate(0,0)"/>
<path d="" fill="#000000" transform="translate(0,0)"/>
<path d="" fill="#000000" transform="translate(0,0)"/>
<path d="" fill="#000000" transform="translate(0,0)"/>
<path d="" fill="#000000" transform="translate(0,0)"/>
<path d="" fill="#000000" transform="translate(0,0)"/>
<path d="" fill="#000000" transform="translate(0,0)"/>
<path d="" fill="#000000" transform="translate(0,0)"/>
<path d="" fill="#000000" transform="translate(0,0)"/>
<path d="" fill="#000000" transform="translate(0,0)"/>
<path d="" fill="#000000" transform="translate(0,0)"/>
<path d="" fill="#000000" transform="translate(0,0)"/>
<path d="" fill="#000000" transform="translate(0,0)"/>
<path d="" fill="#000000" transform="translate(0,0)"/>
<path d="" fill="#000000" transform="translate(0,0)"/>
<path d="" fill="#000000" transform="translate(0,0)"/>
<path d="" fill="#000000" transform="translate(0,0)"/>
<path d="" fill="#000000" transform="translate(0,0)"/>
<path d="" fill="#000000" transform="translate(0,0)"/>
<path d="" fill="#000000" transform="translate(0,0)"/>
</svg>
