<?xml version="1.0" encoding="UTF-8"?>
<svg version="1.1" xmlns="http://www.w3.org/2000/svg" width="164" height="164">
<path d="M0 0 C3.94562258 1.65830514 6.93420885 4.34709055 10.125 7.125 C11.28423125 8.12086942 12.4443971 9.11565189 13.60546875 10.109375 C14.1782959 10.59986328 14.75112305 11.09035156 15.34130859 11.59570312 C18.45165158 14.22901088 21.64969389 16.75089386 24.84375 19.28125 C26.73231645 20.78662906 28.5912203 22.3183328 30.4375 23.875 C33.0009221 26.07582887 33.0009221 26.07582887 36 28 C36.24581669 30.58578402 36.30362325 32.91269899 36.21484375 35.4921875 C36.19788956 36.23453644 36.18093536 36.97688538 36.16346741 37.74172974 C36.12292284 39.31387645 36.07448334 40.88583623 36.01879883 42.45751953 C35.93805513 44.85849269 35.89419732 47.25821059 35.85351562 49.66015625 C35.80953104 51.18756613 35.76337762 52.71491541 35.71484375 54.2421875 C35.69888405 55.31737137 35.69888405 55.31737137 35.68260193 56.41427612 C35.54305233 59.61304266 35.29518663 61.61269359 33.33155823 64.18911743 C30.38787965 66.47542371 28.80195845 66.50630861 25.1015625 66.51757812 C23.31951416 66.53649109 23.31951416 66.53649109 21.50146484 66.55578613 C20.22223145 66.54768921 18.94299805 66.53959229 17.625 66.53125 C16.30838379 66.5350769 14.99176758 66.53890381 13.63525391 66.54284668 C10.85104566 66.54873724 8.06735151 66.54019414 5.28320312 66.52148438 C1.71850667 66.49869376 -1.84498518 66.5118194 -5.40963745 66.53577423 C-8.8148543 66.5537233 -12.21974894 66.54114777 -15.625 66.53125 C-16.9042334 66.53934692 -18.1834668 66.54744385 -19.50146484 66.55578613 C-20.68949707 66.54317749 -21.8775293 66.53056885 -23.1015625 66.51757812 C-24.14650879 66.51439575 -25.19145508 66.51121338 -26.26806641 66.50793457 C-29.71784393 65.86653492 -30.90012064 64.76985224 -33 62 C-33.41786702 59.19303997 -33.60474313 56.76148059 -33.609375 53.953125 C-33.62591125 53.18192322 -33.64244751 52.41072144 -33.65948486 51.6161499 C-33.70794593 49.16068546 -33.72933037 46.70584016 -33.75 44.25 C-33.77816146 42.58200013 -33.80808914 40.91402908 -33.83984375 39.24609375 C-33.91370372 35.1641135 -33.96328936 31.08247655 -34 27 C-33.23357178 26.55269531 -32.46714355 26.10539062 -31.67749023 25.64453125 C-28.53537895 23.71462685 -25.83168643 21.41520141 -23.0625 19 C-17.65878139 14.34992274 -12.13027382 9.89451886 -6.49438477 5.52929688 C-4.22088194 3.76476766 -2.03745876 2.03745876 0 0 Z M-8 39 C-8.08700342 40.63472882 -8.10701063 42.27314055 -8.09765625 43.91015625 C-8.09443359 44.89951172 -8.09121094 45.88886719 -8.08789062 46.90820312 C-8.07951172 47.94912109 -8.07113281 48.99003906 -8.0625 50.0625 C-8.05798828 51.10728516 -8.05347656 52.15207031 -8.04882812 53.22851562 C-8.03699927 55.81903454 -8.01906319 58.40952422 -8 61 C-2.06 61 3.88 61 10 61 C10 53.74 10 46.48 10 39 C6.20068559 38.0501714 3.20357966 37.86628538 -0.6875 37.875 C-2.42580078 37.87113281 -2.42580078 37.87113281 -4.19921875 37.8671875 C-6.90499156 37.68071827 -6.90499156 37.68071827 -8 39 Z " fill="#000000" transform="translate(81,53)"/>
<path d="M0 0 C5.2899729 -0.43360434 5.2899729 -0.43360434 8 0 C9.5625 2.1875 9.5625 2.1875 11 5 C14.09310424 7.69062802 17.10641267 9.70213756 21 11 C21.309375 11.66 21.61875 12.32 21.9375 13 C22.288125 13.66 22.63875 14.32 23 15 C23.66 15.165 24.32 15.33 25 15.5 C25.66 15.665 26.32 15.83 27 16 C27.28875 16.598125 27.5775 17.19625 27.875 17.8125 C29.93380407 21.81573014 33.85854304 23.61951435 38 25 C38.28875 25.61875 38.5775 26.2375 38.875 26.875 C40.91836826 30.73469561 45.18673901 32.16398545 49 34 C49.32316568 37.55482252 49.45553291 39.37575119 47.3125 42.3125 C44.80401508 44.14301602 43.05917167 44.66009204 40 45 C39.67 44.01 39.34 43.02 39 42 C36.99255958 40.29039941 34.98365705 38.70019934 32.875 37.125 C26.74010303 32.434455 20.86485261 27.51287937 15.06396484 22.41650391 C11.77109017 19.52500176 8.44949538 16.70612587 5 14 C2.08324748 15.34696832 -0.25935235 16.88444687 -2.72265625 18.94140625 C-3.42100586 19.52092041 -4.11935547 20.10043457 -4.83886719 20.69750977 C-5.57266602 21.31295654 -6.30646484 21.92840332 -7.0625 22.5625 C-8.58965736 23.83355731 -10.11700126 25.10439053 -11.64453125 26.375 C-12.38783691 26.99503906 -13.13114258 27.61507812 -13.89697266 28.25390625 C-17.46823254 31.21903867 -21.0858716 34.12637764 -24.703125 37.03515625 C-27.12416814 39.05327821 -27.12416814 39.05327821 -29.671875 41.68359375 C-32 44 -32 44 -34 45 C-39.5125 42.975 -39.5125 42.975 -41.1875 39.625 C-40.90926114 35.72965592 -38.8575357 34.54003173 -36 32 C-34.65705519 30.34106818 -33.32255312 28.67523395 -32 27 C-31.47019531 26.62488281 -30.94039062 26.24976562 -30.39453125 25.86328125 C-28.13029546 22.8379578 -28.68925042 19.43098132 -28.8125 15.8125 C-28.82603516 15.06291016 -28.83957031 14.31332031 -28.85351562 13.54101562 C-28.88881461 11.69370233 -28.94262083 9.84675934 -29 8 C-25.57310364 6.85770121 -23.38897782 7.09138924 -19.8125 7.4375 C-18.18248047 7.59025391 -18.18248047 7.59025391 -16.51953125 7.74609375 C-15.68808594 7.82988281 -14.85664062 7.91367187 -14 8 C-14 9.98 -14 11.96 -14 14 C-13.4225 13.030625 -12.845 12.06125 -12.25 11.0625 C-9.85374791 7.80093466 -9.61784053 7.72356811 -6 7 C-5.67 6.34 -5.34 5.68 -5 5 C-4 3 -4 3 -1.875 2.25 C-1.25625 2.1675 -0.6375 2.085 0 2 C0 1.34 0 0.68 0 0 Z " fill="#000000" transform="translate(78,38)"/>
<path d="M0 0 C0.66 0.33 1.32 0.66 2 1 C0.02 1.99 0.02 1.99 -2 3 C-1.34 2.01 -0.68 1.02 0 0 Z " fill="#000000" transform="translate(42,67)"/>
<path d="M0 0 C1.98 0.99 1.98 0.99 4 2 C3.01 2 2.02 2 1 2 C0.67 1.34 0.34 0.68 0 0 Z " fill="#000000" transform="translate(89,42)"/>
<path d="M0 0 C0.99 0.33 1.98 0.66 3 1 C2.01 1 1.02 1 0 1 C0 0.67 0 0.34 0 0 Z " fill="#000000" transform="translate(118,66)"/>
<path d="M0 0 C0.99 0.33 1.98 0.66 3 1 C2.01 1 1.02 1 0 1 C0 0.67 0 0.34 0 0 Z " fill="#000000" transform="translate(107,57)"/>
<path d="M0 0 C0.66 0 1.32 0 2 0 C1.67 0.66 1.34 1.32 1 2 C0.67 1.34 0.34 0.68 0 0 Z " fill="#000000" transform="translate(88,92)"/>
<path d="M0 0 C2 1 2 1 2 1 Z " fill="#000000" transform="translate(112,119)"/>
<path d="M0 0 C2 1 2 1 2 1 Z " fill="#000000" transform="translate(50,119)"/>
<path d="M0 0 C2 1 2 1 2 1 Z " fill="#000000" transform="translate(74,92)"/>
<path d="M0 0 C2 1 2 1 2 1 Z " fill="#000000" transform="translate(39,82)"/>
<path d="" fill="#000000" transform="translate(0,0)"/>
<path d="" fill="#000000" transform="translate(0,0)"/>
<path d="" fill="#000000" transform="translate(0,0)"/>
<path d="" fill="#000000" transform="translate(0,0)"/>
<path d="" fill="#000000" transform="translate(0,0)"/>
<path d="" fill="#000000" transform="translate(0,0)"/>
<path d="" fill="#000000" transform="translate(0,0)"/>
<path d="" fill="#000000" transform="translate(0,0)"/>
<path d="" fill="#000000" transform="translate(0,0)"/>
<path d="" fill="#000000" transform="translate(0,0)"/>
<path d="" fill="#000000" transform="translate(0,0)"/>
<path d="" fill="#000000" transform="translate(0,0)"/>
<path d="" fill="#000000" transform="translate(0,0)"/>
<path d="" fill="#000000" transform="translate(0,0)"/>
<path d="" fill="#000000" transform="translate(0,0)"/>
<path d="" fill="#000000" transform="translate(0,0)"/>
<path d="" fill="#000000" transform="translate(0,0)"/>
<path d="" fill="#000000" transform="translate(0,0)"/>
<path d="" fill="#000000" transform="translate(0,0)"/>
<path d="" fill="#000000" transform="translate(0,0)"/>
<path d="" fill="#000000" transform="translate(0,0)"/>
<path d="" fill="#000000" transform="translate(0,0)"/>
<path d="" fill="#000000" transform="translate(0,0)"/>
<path d="" fill="#000000" transform="translate(0,0)"/>
<path d="" fill="#000000" transform="translate(0,0)"/>
<path d="" fill="#000000" transform="translate(0,0)"/>
<path d="" fill="#000000" transform="translate(0,0)"/>
<path d="" fill="#000000" transform="translate(0,0)"/>
<path d="" fill="#000000" transform="translate(0,0)"/>
<path d="" fill="#000000" transform="translate(0,0)"/>
<path d="" fill="#000000" transform="translate(0,0)"/>
<path d="" fill="#000000" transform="translate(0,0)"/>
<path d="" fill="#000000" transform="translate(0,0)"/>
<path d="" fill="#000000" transform="translate(0,0)"/>
<path d="" fill="#000000" transform="translate(0,0)"/>
<path d="" fill="#000000" transform="translate(0,0)"/>
<path d="" fill="#000000" transform="translate(0,0)"/>
<path d="" fill="#000000" transform="translate(0,0)"/>
<path d="" fill="#000000" transform="translate(0,0)"/>
<path d="" fill="#000000" transform="translate(0,0)"/>
<path d="" fill="#000000" transform="translate(0,0)"/>
<path d="" fill="#000000" transform="translate(0,0)"/>
<path d="" fill="#000000" transform="translate(0,0)"/>
<path d="" fill="#000000" transform="translate(0,0)"/>
<path d="" fill="#000000" transform="translate(0,0)"/>
<path d="" fill="#000000" transform="translate(0,0)"/>
</svg>
