<?xml version="1.0" encoding="UTF-8"?>
<svg version="1.1" xmlns="http://www.w3.org/2000/svg" width="2102" height="2048">
<path d="M0 0 C693.66 0 1387.32 0 2102 0 C2102 675.84 2102 1351.68 2102 2048 C1408.34 2048 714.68 2048 0 2048 C0 1372.16 0 696.32 0 0 Z " fill="#FEFEFE" transform="translate(0,0)"/>
<path d="M0 0 C0.95979263 -0.00426498 1.91958527 -0.00852997 2.90846252 -0.01292419 C3.9500351 -0.01247101 4.99160767 -0.01201782 6.06474304 -0.0115509 C7.17118668 -0.01490952 8.27763031 -0.01826813 9.41760254 -0.02172852 C13.07953514 -0.03123377 16.74142192 -0.03318198 20.40336609 -0.03425598 C22.9586387 -0.03747084 25.51391112 -0.04083508 28.06918335 -0.04434204 C33.43326823 -0.05033365 38.79733614 -0.052225 44.16142273 -0.05158997 C50.32274545 -0.05099214 56.48397977 -0.06148601 62.64528018 -0.07733363 C68.60556534 -0.09210743 74.56582421 -0.09557457 80.52612877 -0.09498024 C83.04442389 -0.09615249 85.56271982 -0.10053138 88.08100319 -0.10831261 C107.3340099 -0.16219318 124.87208512 0.47964531 143.10258484 7.13371277 C143.8056073 7.38781921 144.50862976 7.64192566 145.23295593 7.9037323 C155.75554226 11.77872401 164.98294833 16.62988134 174.10258484 23.13371277 C174.75646179 23.59439148 175.41033875 24.05507019 176.08403015 24.52970886 C205.85264675 45.64465785 229.38803018 79.1439505 237.35258484 115.13371277 C237.77548006 116.97362133 238.19867991 118.81345988 238.62211609 120.65324402 C238.85366394 121.67112 239.08521179 122.68899597 239.32377625 123.73771667 C240.1966802 127.54401573 241.09050684 131.34518595 241.98930359 135.14543152 C242.15536102 135.84773895 242.32141846 136.55004639 242.49250793 137.27363586 C242.83493903 138.72186945 243.17737686 140.17010145 243.51982117 141.61833191 C248.51295341 162.76006454 253.43203147 183.91816166 258.10258484 205.13371277 C259.7999176 205.30350647 259.7999176 205.30350647 261.53153992 205.47673035 C272.71359378 206.61381584 283.85458402 207.96337479 294.99525452 209.44898987 C299.96762273 210.11122303 304.94134143 210.76315056 309.91508484 211.41496277 C311.49400764 211.62194038 311.49400764 211.62194038 313.10482788 211.83309937 C324.95913746 213.38285989 336.81967752 214.88258981 348.68208313 216.36897278 C351.04071521 216.66461226 353.39925998 216.96094929 355.75770569 217.2580719 C369.40138981 218.97597454 383.04874436 220.61552075 396.72445679 222.05990601 C401.90332443 222.61764645 407.04675159 223.25766228 412.19096375 224.07780457 C419.99161547 225.31049288 427.82380588 226.22117372 435.66674995 227.13600159 C438.38916049 227.45367133 441.11119629 227.77439971 443.8331604 228.09587097 C450.5874348 228.89301776 457.34223236 229.68568805 464.09715271 230.4773407 C469.82740213 231.1489561 475.55737113 231.82287264 481.28697014 232.50001526 C483.94750329 232.81352532 486.6084115 233.12369798 489.26934814 233.4337616 C497.04505906 234.34796024 504.77038736 235.34408477 512.48513794 236.69377136 C516.65331354 237.3943598 520.84125458 237.87690921 525.04008484 238.35246277 C525.92687927 238.45586975 526.81367371 238.55927673 527.7273407 238.66581726 C530.51877257 238.99125089 533.3106092 239.31298008 536.10258484 239.63371277 C539.79049238 240.05736708 543.47790689 240.48500975 547.16508484 240.91496277 C547.98420349 241.00773499 548.80332214 241.1005072 549.64726257 241.1960907 C554.11978081 241.71799692 558.54947623 242.36066066 562.98783875 243.12223816 C568.93244662 244.13491661 574.88364165 244.87215847 580.87602234 245.53605652 C581.96106049 245.65928787 583.04609863 245.78251923 584.16401672 245.90948486 C587.60154515 246.29969488 591.03950543 246.68588986 594.47758484 247.07121277 C608.23807701 248.61603948 621.9817337 250.20312579 635.69677734 252.11404419 C643.48029813 253.19752678 651.27615818 254.10465056 659.08891296 254.95011902 C664.67237035 255.57249031 670.23273833 256.28711287 675.79031372 257.10551453 C685.86558771 258.58842316 695.95847848 259.87469437 706.07133484 261.07121277 C706.77841017 261.1549263 707.4854855 261.23863983 708.21398735 261.32489014 C713.34311474 261.93129122 718.47278968 262.53299065 723.60258484 263.13371277 C729.44670597 263.81808568 735.29059873 264.50431953 741.13383484 265.19621277 C741.83661497 265.27940262 742.5393951 265.36259247 743.2634716 265.44830322 C754.22412122 266.74990848 765.15027556 268.22540501 776.06895447 269.83927917 C780.71646762 270.51215662 785.37803502 271.07259919 790.04008484 271.63371277 C799.59452943 272.80627178 809.13363705 274.06942771 818.66899109 275.38761902 C819.53749695 275.5068573 820.40600281 275.62609558 821.30082703 275.74894714 C823.22885794 276.01372378 825.15657655 276.28078138 827.08403015 276.54972839 C835.52960379 277.70572086 843.98818737 278.72550636 852.45414734 279.71965027 C853.68191391 279.86383896 854.90968048 280.00802765 856.1746521 280.15658569 C861.29330505 280.75672516 866.41208676 281.35571646 871.53129578 281.95109558 C886.73190479 283.72116392 901.90284267 285.62031375 917.0579834 287.74621582 C925.65141964 288.94773882 934.24845751 290.03124378 942.87394714 290.97306824 C946.53576557 291.37339143 950.19601111 291.7877674 953.85649109 292.20011902 C954.57279694 292.28053436 955.28910278 292.36094971 956.02711487 292.44380188 C966.06481695 293.57405914 976.08435036 294.84385741 986.10258484 296.13371277 C987.34588562 296.29371765 988.5891864 296.45372253 989.87016296 296.61857605 C995.30407762 297.318388 1000.73788066 298.01904601 1006.17118835 298.72355652 C1012.5417391 299.54889103 1018.91291649 300.36134404 1025.29008484 301.13371277 C1031.02248609 301.84019249 1036.73389445 302.65719985 1042.44877625 303.49333191 C1053.69308296 305.13555769 1064.93793256 306.63448973 1076.22532654 307.94203186 C1078.4082023 308.19541386 1080.5906344 308.45235059 1082.772995 308.71012878 C1089.13755217 309.45896668 1095.50150447 310.18236995 1101.87992859 310.80558777 C1116.76960863 312.34108232 1128.75077757 315.20298675 1139.26664734 326.75480652 C1146.81700722 336.53814517 1148.8754178 347.26832182 1147.63774109 359.40324402 C1145.35958005 375.28385567 1141.41159379 390.94441066 1137.897995 406.58439636 C1137.09006523 410.18957834 1136.288571 413.79613226 1135.48930359 417.40324402 C1135.22552917 418.59361267 1134.96175476 419.78398132 1134.68998718 421.01042175 C1134.19142153 423.26119276 1133.69303463 425.51200336 1133.19487 427.76286316 C1132.05661883 432.89216221 1130.90227063 438.01693948 1129.7141571 443.13493347 C1128.08262019 450.19594974 1126.49757528 457.26685807 1124.92289734 464.34074402 C1124.77743343 464.9939179 1124.63196953 465.64709179 1124.48209763 466.32005882 C1123.71065928 469.78410364 1122.93980794 473.24827842 1122.16947937 476.71257019 C1121.54611613 479.51552519 1120.92175268 482.31825425 1120.2964325 485.12077332 C1117.01589327 499.82431835 1113.7814569 514.53338588 1110.74205017 529.28915405 C1109.28926937 536.31598237 1107.70646393 543.2940567 1105.97758484 550.25871277 C1103.57574464 560.11167298 1101.3061379 569.96311532 1099.36430359 579.91886902 C1098.09804397 586.40601448 1096.70929241 592.76347002 1094.89237976 599.11735535 C1094.03162457 602.40472178 1093.36281872 605.69613869 1092.71586609 609.03215027 C1091.18977635 616.80056108 1089.50365945 624.52947988 1087.79008484 632.25871277 C1085.95046748 640.57227543 1084.13214956 648.88738251 1082.45414734 657.23527527 C1082.06416565 659.16669373 1082.06416565 659.16669373 1081.66630554 661.13713074 C1081.18168089 663.55411155 1080.70319366 665.97233497 1080.23222351 668.39201355 C1075.12056752 693.85937839 1064.39425292 714.77307422 1045.10258484 732.13371277 C1044.41809265 732.76793152 1043.73360046 733.40215027 1043.02836609 734.05558777 C1036.45769797 739.548371 1027.88258511 742.71296761 1020.10258484 746.13371277 C1019.11383301 746.60442271 1018.12508118 747.07513264 1017.10636717 747.56010652 C1000.72411078 754.52938999 981.14595287 753.70356632 963.72320557 753.61473083 C961.13772775 753.61647927 958.55225064 753.61998915 955.96677727 753.6250875 C950.38890485 753.63329914 944.81120481 753.62695232 939.23335266 753.61053467 C930.93959103 753.58619174 922.64593592 753.58521005 914.35214507 753.58870262 C900.39437374 753.5939341 886.43667868 753.58068492 872.47892952 753.556633 C858.67368249 753.53290524 844.86846727 753.51755722 831.0632 753.51322174 C829.77210997 753.5128093 829.77210997 753.5128093 828.45493731 753.51238853 C824.08313546 753.51103506 819.71133357 753.50982958 815.33953165 753.50868103 C784.43313523 753.50029577 753.52678022 753.47339227 722.6204071 753.43547058 C692.6090161 753.39868972 662.59763647 753.37037644 632.58622742 753.35343933 C631.65994974 753.35291323 630.73367207 753.35238712 629.77932537 753.35184507 C620.47664196 753.34657066 611.17395845 753.34146745 601.87127488 753.33648964 C582.9233074 753.32634678 563.97534067 753.31506178 545.02737427 753.30308533 C543.72078961 753.30226159 543.72078961 753.30226159 542.38780929 753.30142121 C484.29271714 753.26466416 426.19764841 753.20120515 368.10258484 753.13371277 C367.97325562 754.21874084 367.84392639 755.30376892 367.7106781 756.42167664 C367.53514338 757.8667219 367.35945573 759.3117486 367.18363953 760.75675964 C367.0991153 761.46934937 367.01459106 762.18193909 366.92750549 762.91612244 C366.18776369 768.95438934 364.9587813 774.76445351 363.35258484 780.63371277 C363.08872986 781.61291687 362.82487488 782.59212097 362.55302429 783.60099792 C355.4865816 809.21659017 343.10646916 829.87249384 326.10258484 850.13371277 C319.26897252 858.31560947 312.66411674 866.44675385 307.49613953 875.80119324 C307.04744507 876.61232574 306.59875061 877.42345825 306.13645935 878.25917053 C305.62469147 879.18706894 305.62469147 879.18706894 305.10258484 880.13371277 C305.7121848 880.13411295 306.32178475 880.13451313 306.94985744 880.13492544 C373.31015086 880.17859478 439.67044123 880.22596257 506.03071594 880.29269409 C507.0217906 880.29368966 508.01286526 880.29468522 509.03397248 880.29571096 C530.57206564 880.31736888 552.11015807 880.33969153 573.64824983 880.36269905 C584.21033923 880.37397769 594.77242879 880.38510942 605.33451843 880.39616394 C606.3855801 880.39726651 607.43664176 880.39836907 608.51955378 880.39950505 C642.59492616 880.4351813 676.67029756 880.46115453 710.74568191 880.48210245 C745.75901858 880.50367819 780.7723332 880.53502997 815.78564961 880.5787039 C820.72965949 880.58486625 825.6736695 880.59091671 830.6176796 880.59689903 C831.5907433 880.59807991 832.56380701 880.5992608 833.5663575 880.60047746 C849.23765008 880.61920779 864.90893206 880.62761535 880.58023446 880.63217401 C896.33054507 880.63697554 912.0808152 880.65262513 927.83110408 880.67937843 C937.19162577 880.69494762 946.55206762 880.70216873 955.91260155 880.69748206 C962.16484418 880.69517105 968.41701133 880.70369752 974.66923019 880.72103688 C978.23205884 880.73060745 981.79472072 880.73546513 985.35755627 880.7271084 C989.19763092 880.71821138 993.03742363 880.73247409 996.87747765 880.74895191 C997.9806667 880.74267522 999.08385575 880.73639852 1000.22047478 880.72993162 C1012.64758165 880.82841497 1022.17585026 884.37138034 1031.29008484 892.82121277 C1039.09123595 900.91413921 1041.45468163 909.86078737 1041.48320007 920.78459167 C1041.24145081 931.57948592 1036.80004851 939.34808186 1029.36039734 947.00871277 C1020.1471214 955.6800313 1011.36916376 957.6043791 998.84867859 957.42668152 C997.70721878 957.42243668 996.56575897 957.41819183 995.38970947 957.41381836 C991.77291974 957.39713428 988.15670386 957.35950043 984.54008484 957.32121277 C982.07590022 957.30615269 979.6117068 957.29246661 977.14750671 957.28019714 C971.13233964 957.24726443 965.11750326 957.19716805 959.10258484 957.13371277 C958.92306345 962.11590985 958.83060287 967.08970552 958.8157196 972.07511902 C958.79876929 973.76692193 958.75878078 975.45866673 958.69462585 977.14933777 C958.33053462 985.27893232 958.33053462 985.27893232 960.10258484 993.13371277 C964.03381264 997.07454399 968.02170241 998.8651338 973.10258484 1001.13371277 C994.23569632 1015.76473961 1007.66877467 1039.0583654 1012.35258484 1064.07121277 C1016.19526335 1092.27372824 1010.42275475 1118.64258066 993.21195984 1141.45011902 C992.51586609 1142.33570496 991.81977234 1143.22129089 991.10258484 1144.13371277 C990.12031921 1145.38474792 990.12031921 1145.38474792 989.11820984 1146.66105652 C982.79516909 1154.18452418 975.18554129 1159.66182997 967.10258484 1165.13371277 C965.64658875 1166.11984558 965.64658875 1166.11984558 964.16117859 1167.12590027 C959.42542546 1170.14810608 955.7457718 1171.88835681 950.10258484 1172.13371277 C950.10258484 1172.79371277 950.10258484 1173.45371277 950.10258484 1174.13371277 C947.58284231 1174.78406648 945.06192549 1175.4290877 942.54008484 1176.07121277 C941.83561218 1176.25361511 941.13113953 1176.43601746 940.40531921 1176.62394714 C917.25118586 1182.49250629 892.1965805 1180.47515978 871.10258484 1169.13371277 C870.11000671 1168.62066589 869.11742859 1168.10761902 868.09477234 1167.57902527 C844.21876745 1154.55008265 828.14716237 1132.41075977 820.10258484 1106.71574402 C813.15937758 1081.84495863 817.4430886 1056.08903886 829.20805359 1033.43058777 C832.1236709 1028.35681248 835.48068291 1023.72196248 839.10258484 1019.13371277 C839.61305359 1018.46984558 840.12352234 1017.80597839 840.64945984 1017.12199402 C841.74169771 1015.74384682 842.91274869 1014.42853446 844.10258484 1013.13371277 C844.76258484 1013.13371277 845.42258484 1013.13371277 846.10258484 1013.13371277 C846.30754578 1012.57554871 846.51250671 1012.01738464 846.72367859 1011.44230652 C848.61343267 1008.27844061 851.25709783 1006.36492303 854.16508484 1004.19621277 C854.74492126 1003.75744812 855.32475769 1003.31868347 855.92216492 1002.86662292 C867.65306075 994.13371277 867.65306075 994.13371277 872.10258484 994.13371277 C872.10258484 981.92371277 872.10258484 969.71371277 872.10258484 957.13371277 C704.46258484 957.13371277 536.82258484 957.13371277 364.10258484 957.13371277 C364.10258484 969.01371277 364.10258484 980.89371277 364.10258484 993.13371277 C365.75258484 993.79371277 367.40258484 994.45371277 369.10258484 995.13371277 C391.9186058 1008.09412418 409.01539989 1027.9877041 416.77836609 1053.34074402 C417.27389593 1055.25855799 417.68971922 1057.19642027 418.10258484 1059.13371277 C418.27024353 1059.7938739 418.43790222 1060.45403503 418.61064148 1061.13420105 C420.0019545 1066.76260675 420.41877129 1072.03527207 420.35258484 1077.82121277 C420.34509216 1078.69551941 420.33759949 1079.56982605 420.32987976 1080.47062683 C419.86074961 1109.01680318 408.84509638 1133.81584781 388.69633484 1153.84074402 C387.10258484 1155.13371277 387.10258484 1155.13371277 385.10258484 1155.13371277 C385.10258484 1155.79371277 385.10258484 1156.45371277 385.10258484 1157.13371277 C376.80228416 1164.01308514 367.02941882 1169.05486514 357.10258484 1173.13371277 C356.25953796 1173.48562683 355.41649109 1173.83754089 354.54789734 1174.20011902 C332.03623819 1183.04165471 305.87364162 1181.20689889 283.91508484 1171.88371277 C266.20407801 1163.91686839 252.27157455 1152.91467309 241.10258484 1137.13371277 C240.53926453 1136.39765808 239.97594421 1135.66160339 239.39555359 1134.90324402 C225.02345862 1115.29803795 221.90187529 1088.34855178 224.85258484 1064.82121277 C227.43682964 1049.26264303 234.36371215 1034.57547788 243.75492859 1021.95402527 C245.15552144 1020.17181724 245.15552144 1020.17181724 246.10258484 1018.13371277 C246.76258484 1018.13371277 247.42258484 1018.13371277 248.10258484 1018.13371277 C248.36555359 1017.54847839 248.62852234 1016.96324402 248.89945984 1016.36027527 C252.50073961 1009.6955692 259.18845809 1005.15238406 265.22758484 1000.82121277 C266.1059198 1000.19061951 266.1059198 1000.19061951 267.0019989 999.54728699 C270.64929186 996.9921271 274.02262757 995.1736914 278.10258484 993.13371277 C278.10258484 981.58371277 278.10258484 970.03371277 278.10258484 958.13371277 C272.82258484 957.80371277 267.54258484 957.47371277 262.10258484 957.13371277 C253.44554566 955.75360507 244.45324533 951.26538497 238.10258484 945.13371277 C238.10258484 944.47371277 238.10258484 943.81371277 238.10258484 943.13371277 C237.44258484 943.13371277 236.78258484 943.13371277 236.10258484 943.13371277 C234.53022763 941.12276636 233.08705253 939.12213809 231.66508484 937.00871277 C231.26998718 936.43894714 230.87488953 935.86918152 230.46781921 935.28215027 C218.5298704 917.80229177 219.37352011 896.78187331 223.13774109 876.71574402 C227.0425477 857.58662433 234.50925405 839.90603488 246.10258484 824.13371277 C246.78836609 823.18754089 247.47414734 822.24136902 248.18070984 821.26652527 C251.85610082 816.28227203 255.65906328 811.42348248 259.554245 806.61076355 C279.93851801 781.40523391 291.32155995 755.21062114 288.10258484 722.13371277 C286.77036995 713.91484447 284.70883111 705.84725127 282.70927429 697.77061462 C280.71085325 689.65254835 278.97044121 681.4807526 277.2325592 673.30363464 C276.66414012 670.62926792 276.09224254 667.9556629 275.51982117 665.28215027 C272.71238034 652.14155711 270.01808122 638.97907795 267.34257507 625.81111145 C265.41583919 616.34309118 263.42004008 606.91368388 261.09892273 597.53312683 C258.79122142 588.09124561 256.81197688 578.57741992 254.79008484 569.07121277 C251.95970926 555.7641771 249.0830801 542.47043307 246.10258484 529.19621277 C243.14383029 516.01303229 240.34487311 502.80101158 237.60258484 489.57121277 C234.81418262 476.12386028 231.93405178 462.7046363 228.85258484 449.32121277 C228.68552032 448.59547058 228.51845581 447.86972839 228.34632874 447.12199402 C227.02436999 441.38744096 225.69157686 435.65544278 224.35307312 429.92472839 C221.58254073 418.05158316 219.10019876 406.15803374 216.83622742 394.1771698 C215.65525031 387.94254609 214.39897686 381.74876498 212.91117859 375.57902527 C211.76012721 370.6745455 210.72136657 365.7468379 209.66508484 360.82121277 C208.25068933 354.24806221 206.78125153 347.70699289 205.10258484 341.19621277 C203.16952972 333.64254757 201.59332331 326.03214617 200.02616882 318.39518738 C198.64124518 311.66638505 197.19487842 304.95606717 195.66508484 298.25871277 C195.46149353 297.36684265 195.25790222 296.47497253 195.04814148 295.55607605 C193.92588335 290.66377964 192.7838751 285.77644021 191.62992859 280.89152527 C188.81635584 268.93045177 186.24970422 256.96639045 183.99711609 244.8868866 C182.34676102 236.1430269 180.38477963 227.49374302 178.33744812 218.83537292 C176.55715278 211.25450165 174.96830968 203.65149762 173.47758484 196.00871277 C171.93756706 188.12584855 170.22471016 180.36474301 168.18852234 172.59465027 C167.27350883 168.97408088 166.5111074 165.33207472 165.76664734 161.67277527 C160.30199595 133.68290153 160.30199595 133.68290153 148.10258484 108.13371277 C147.62820984 107.37445496 147.15383484 106.61519714 146.66508484 105.83293152 C137.96279247 93.23636331 121.77075185 84.46069514 107.10258484 81.13371277 C103.44955676 80.75102782 99.83832979 80.73538915 96.16777039 80.76481628 C95.12405273 80.7610498 94.08033508 80.75728333 93.00498962 80.75340271 C90.75542788 80.74700419 88.50583906 80.74726811 86.25627708 80.75358772 C82.68539953 80.76275744 79.11504047 80.75240613 75.54418945 80.73696899 C65.39740229 80.69703585 55.25065827 80.69566195 45.10380554 80.69792175 C38.88056542 80.69797308 32.65760565 80.6786964 26.43444252 80.64858818 C22.93534274 80.63783728 19.43679508 80.64984939 15.93771362 80.66241455 C-1.22088652 80.63490694 -14.59311694 78.92305146 -27.64741516 66.82121277 C-35.93886085 58.08730014 -38.38401384 48.14446599 -38.13960266 36.37199402 C-37.31520742 25.34903191 -32.08922038 16.80702049 -24.08491516 9.32121277 C-16.96817131 3.46443719 -9.25046372 0.01867675 0 0 Z " fill="#010101" transform="translate(501.8974151611328,521.8662872314453)"/>
<path d="M0 0 C5.32356627 -0.08341718 10.36896158 0.18180422 15.66015625 0.8828125 C16.74861092 1.02467484 16.74861092 1.02467484 17.85905457 1.16940308 C19.43298484 1.37516603 21.00661156 1.58326185 22.57995605 1.79345703 C25.12984837 2.13399435 27.68050906 2.46815905 30.23144531 2.80078125 C33.9092971 3.28076888 37.586838 3.76304203 41.26416016 4.24707031 C50.92367059 5.5169251 60.58645296 6.76128608 70.25 8 C71.22815674 8.12559296 72.20631348 8.25118591 73.21411133 8.38058472 C88.73189386 10.36971301 104.26254739 12.22299245 119.80578613 14.00137329 C130.4539657 15.21996506 141.09539591 16.44579415 151.69946289 18.01245117 C160.45007602 19.2847423 169.17605931 20.07116414 178 21 C178 60.6 178 100.2 178 141 C150.85810811 139.81991774 150.85810811 139.81991774 140.0625 139.125 C138.40250977 139.02638672 138.40250977 139.02638672 136.70898438 138.92578125 C128.89932065 138.42738194 121.1197806 137.73149734 113.33094788 136.97349548 C100.10800648 135.68759907 86.89142319 134.60059909 73.6328125 133.75390625 C72.09477064 133.65401157 70.55674062 133.55393446 69.01872253 133.45367432 C62.77992726 133.04855898 56.54114945 132.64542958 50.30029297 132.27319336 C46.3978313 132.03978623 42.49694562 131.78794389 38.59646225 131.52360344 C37.13044607 131.42777598 35.66395898 131.33888017 34.19708633 131.25720406 C32.17867135 131.14417993 30.16174181 131.00549542 28.14501953 130.86547852 C26.43114548 130.75913841 26.43114548 130.75913841 24.68264771 130.65065002 C22 130 22 130 20.64910889 128.08045959 C19.96328401 125.88232156 19.45506371 123.76349117 19.0703125 121.4921875 C18.91675293 120.60039795 18.76319336 119.7086084 18.60498047 118.78979492 C18.44658691 117.8279126 18.28819336 116.86603027 18.125 115.875 C17.95500488 114.87251221 17.78500977 113.87002441 17.60986328 112.8371582 C16.10914441 103.89279102 14.72848665 94.9292164 13.39501953 85.95849609 C12.71151622 81.40061198 12.00215137 76.8681036 11.0625 72.35546875 C9.64202024 65.46964843 8.61103862 58.51540215 7.51251221 51.57266235 C4.72614512 33.76619034 4.72614512 33.76619034 1.11767578 16.11181641 C-0.07216325 10.70566944 -0.16653283 5.5247623 0 0 Z " fill="#FDFDFD" transform="translate(968,823)"/>
<path d="M0 0 C6.93327094 0.63029736 13.8076432 1.30144283 20.703125 2.19921875 C21.60158646 2.3144841 22.50004791 2.42974945 23.42573547 2.54850769 C26.36739995 2.9263095 29.30869485 3.30691176 32.25 3.6875 C34.35275613 3.95805551 36.45553991 4.2283963 38.55834961 4.49853516 C42.90928351 5.05762785 47.26009848 5.61763371 51.61083984 6.17822266 C57.52771407 6.9400056 63.44530974 7.69601231 69.36328125 8.44921875 C80.07407042 9.8124367 90.78416917 11.18099398 101.49401855 12.55157471 C104.64697146 12.95484662 107.79998188 13.35766604 110.95301342 13.76032257 C118.07551388 14.66993319 125.19776964 15.58142636 132.31967449 16.49568939 C135.84293785 16.94793711 139.36629981 17.3993803 142.8899231 17.84881592 C146.8266957 18.35099493 150.76297414 18.85697938 154.69921875 19.36328125 C155.88548859 19.51405624 157.07175842 19.66483124 158.29397583 19.82017517 C159.3850766 19.96113113 160.47617737 20.1020871 161.6003418 20.24731445 C162.55112106 20.36911575 163.50190033 20.49091705 164.48149109 20.6164093 C166.70691182 20.95536013 168.82988778 21.40874874 171 22 C169.4001885 36.17168396 167.53150305 50.30419676 165.625 64.4375 C165.47037292 65.58764587 165.31574585 66.73779175 165.15643311 67.92279053 C163.28766531 81.80848775 161.40320045 95.68712839 159.15478516 109.51733398 C158.32173515 114.66619093 157.6857845 119.78226407 157.25927734 124.98193359 C157 127 157 127 156 129 C139.98180686 128.04891445 123.98495782 126.96910375 108 125.5625 C95.62963204 124.47566507 83.25688858 123.44735791 70.875 122.5 C69.678181 122.40832047 69.678181 122.40832047 68.45718384 122.31478882 C58.89601309 121.584113 49.33331436 120.87529141 39.76953125 120.1796875 C38.83955322 120.11199158 37.9095752 120.04429565 36.95141602 119.97454834 C32.45915599 119.64790814 27.96677011 119.32319945 23.47412109 119.00195312 C21.84081915 118.88413075 20.20751831 118.76629299 18.57421875 118.6484375 C17.49222954 118.57204544 17.49222954 118.57204544 16.38838196 118.49411011 C10.90888863 118.09698733 5.47293361 117.54729336 0 117 C0 78.39 0 39.78 0 0 Z " fill="#FDFDFD" transform="translate(1196,851)"/>
<path d="M0 0 C24.95724121 2.54867106 49.81414352 5.91143802 74.68554688 9.17401123 C83.78304942 10.36689607 92.88114004 11.5552865 101.97924423 12.74357224 C105.12838617 13.1553121 108.27735604 13.56834736 111.42630005 13.9815979 C113.35987996 14.23466749 115.29346335 14.48771051 117.22705078 14.74072266 C118.08734894 14.85397385 118.94764709 14.96722504 119.83401489 15.08390808 C120.64878296 15.19033127 121.46355103 15.29675446 122.30300903 15.40640259 C123.08116093 15.50871815 123.85931282 15.61103371 124.66104507 15.71644974 C126.27143152 15.91167603 127.88505477 16.08134358 129.50042343 16.22980881 C130.29997578 16.3036945 131.09952812 16.37758018 131.92330933 16.45370483 C132.63563154 16.5119512 133.34795376 16.57019756 134.0818615 16.63020897 C136 17 136 17 139 19 C139.90380859 21.91625977 139.90380859 21.91625977 140.6484375 25.69140625 C140.78584854 26.37484604 140.92325958 27.05828583 141.06483459 27.76243591 C141.51515213 30.02668802 141.94571893 32.29417234 142.375 34.5625 C142.68603667 36.15955248 142.99731947 37.75655704 143.30883789 39.35351562 C145.39686388 50.19172321 147.15670081 61.05453233 148.72103882 71.98031616 C150.77631439 86.31183281 153.44945432 100.5124832 156.23413086 114.71875 C158.43995756 126.11242294 159.97756285 137.43979747 161 149 C151.06534189 149.1373747 141.26796265 148.73475711 131.359375 148.01171875 C129.87799542 147.9073372 128.3965848 147.80339539 126.91514587 147.69985962 C122.99787803 147.42485014 119.08106106 147.14388765 115.16433334 146.86130142 C111.11471279 146.56978003 107.06478856 146.2825383 103.01489258 145.99487305 C98.18035562 145.65123236 93.34586122 145.30703631 88.5115509 144.96022034 C79.35179125 144.30377822 70.19089022 143.67207311 61.02734375 143.0703125 C58.13175309 142.87689413 55.23621351 142.68273313 52.34069824 142.4881897 C50.58234749 142.37175508 48.82379978 142.2582549 47.06506348 142.14779663 C44.69250882 141.99837037 42.32089847 141.83841649 39.94921875 141.67578125 C38.66362061 141.59239502 37.37802246 141.50900879 36.0534668 141.4230957 C33 141 33 141 30 139 C29.06445312 136.34887695 29.06445312 136.34887695 28.28125 132.98828125 C27.98863281 131.75400391 27.69601562 130.51972656 27.39453125 129.24804688 C27.09627664 127.93621554 26.79809977 126.62436653 26.5 125.3125 C26.20480469 124.06404297 25.90960937 122.81558594 25.60546875 121.52929688 C24.15985836 115.34883483 22.8147039 109.15835296 21.59375 102.9296875 C19.80054123 93.82154255 17.73337227 84.7780189 15.66601562 75.72875977 C14.99882638 72.80736111 14.33513219 69.88518422 13.671875 66.96289062 C11.72789961 58.41870129 9.74715236 49.89296466 7.5859375 41.40063477 C6.74922567 37.97255669 6.11266286 34.53790299 5.5 31.0625 C4.42497619 25.0685587 3.14501331 19.16365468 1.6484375 13.2578125 C1.08238537 10.41391206 0.73556099 7.67844375 0.45947266 4.79638672 C0.37251129 3.89765839 0.28554993 2.99893005 0.19595337 2.07296753 C0.13128876 1.38888824 0.06662415 0.70480896 0 0 Z " fill="#FDFDFD" transform="translate(776,798)"/>
<path d="M0 0 C7.1791269 -0.15589852 14.19759057 0.37793377 21.34310913 1.052948 C25.10793208 1.40716359 28.87430605 1.74415486 32.640625 2.08203125 C33.46080612 2.15575455 34.28098724 2.22947784 35.12602234 2.30543518 C72.71262024 5.6624995 110.36578886 8.26296646 148 11 C148 52.25 148 93.5 148 136 C106.42 136 64.84 136 22 136 C19.525 121.15 19.525 121.15 17 106 C15.94450994 100.06771502 14.88809969 94.13728802 13.80236816 88.21075439 C11.54502499 75.8733842 9.38228784 63.54199256 7.60546875 51.125 C7.00433921 46.94357038 6.30176513 42.78403466 5.5625 38.625 C5.44318115 37.95299561 5.3238623 37.28099121 5.20092773 36.58862305 C4.46668413 32.49811204 3.69999204 28.41441546 2.921875 24.33203125 C2.73810303 23.35476074 2.55433105 22.37749023 2.36499023 21.37060547 C2.00624741 19.46608215 1.64151878 17.56267301 1.26977539 15.66064453 C0.27063043 10.33869818 -0.1832373 5.4149781 0 0 Z " fill="#FDFDFD" transform="translate(998,1003)"/>
<path d="M0 0 C9.95458343 -0.31084089 19.75367921 0.54551317 29.65576172 1.42443848 C34.88662856 1.8878704 40.11905192 2.33291163 45.3515625 2.77734375 C46.48531311 2.87379181 47.61906372 2.97023987 48.78717041 3.0696106 C64.51693754 4.39609269 80.25893358 5.56690639 96 6.75 C97.50970575 6.8636219 99.01941034 6.97725912 100.52911377 7.09091187 C109.01921634 7.72985825 117.50950408 8.3662994 126 9 C129.39506371 24.42931698 132.67988769 39.82765599 135.125 55.4375 C135.58177187 58.31187668 136.0431819 61.18547727 136.5078125 64.05859375 C136.62378784 64.7777597 136.73976318 65.49692566 136.85925293 66.23788452 C137.77625515 71.83690928 138.82998729 77.40386086 139.9140625 82.97265625 C142.08523442 94.1681387 143.92838574 105.41011223 145.71972656 116.671875 C146.25843576 120.05294487 146.80477751 123.43272776 147.3515625 126.8125 C147.69836942 128.97909424 148.04474048 131.14575831 148.390625 133.3125 C148.55306702 134.31450439 148.71550903 135.31650879 148.88287354 136.34887695 C149.10375641 137.74819458 149.10375641 137.74819458 149.32910156 139.17578125 C149.45915588 139.98958252 149.58921021 140.80338379 149.72320557 141.6418457 C150 144 150 144 150 149 C111.39 149 72.78 149 33 149 C30.03 135.8 27.06 122.6 24 109 C20.95318157 96.48878914 20.95318157 96.48878914 17.89453125 83.98046875 C15.80606583 75.31190678 13.95659111 66.59941542 12.14663696 57.86907959 C9.27818973 44.03812876 6.09911513 30.28525219 2.84399414 16.54052734 C2.47018586 14.94759795 2.09640517 13.35466207 1.72265625 11.76171875 C1.54802856 11.03410843 1.37340088 10.30649811 1.19348145 9.55683899 C0.41776973 6.23871182 0 3.43414537 0 0 Z " fill="#FDFDFD" transform="translate(819,990)"/>
<path d="M0 0 C8.10768437 0 16.07698314 0.1349557 24.15234375 0.62109375 C25.2555043 0.68531021 26.35866486 0.74952667 27.49525452 0.81568909 C29.80366023 0.95100121 32.11196426 1.08805873 34.42016602 1.22680664 C37.95234722 1.43838937 41.48491234 1.64238951 45.01757812 1.84570312 C47.27086003 1.97871515 49.52411626 2.11216314 51.77734375 2.24609375 C53.35551125 2.33678383 53.35551125 2.33678383 54.96556091 2.42930603 C56.43848351 2.51928612 56.43848351 2.51928612 57.94116211 2.61108398 C59.22923012 2.68769508 59.22923012 2.68769508 60.5433197 2.76585388 C63.0822081 3.00783525 65.50383384 3.48485031 68 4 C70.59778523 4.24681961 73.18700616 4.46337864 75.7890625 4.6484375 C76.93554764 4.73402924 76.93554764 4.73402924 78.10519409 4.8213501 C79.75306135 4.94425509 81.40102484 5.06587534 83.04907227 5.18634033 C87.43171991 5.50732327 91.81350659 5.8396273 96.1953125 6.171875 C97.09078796 6.23964142 97.98626343 6.30740784 98.90887451 6.37722778 C107.35191518 7.01969696 115.79050418 7.7105738 124.22723389 8.43096924 C125.73078739 8.55933072 127.23440819 8.68690667 128.73809814 8.81365967 C130.83601016 8.99076339 132.93366134 9.17067369 135.03125 9.3515625 C136.21267578 9.45291504 137.39410156 9.55426758 138.61132812 9.65869141 C142.0921032 10.00927668 145.5406173 10.48131308 149 11 C149.36519433 19.72518348 147.97870372 28.15245025 146.6875 36.75 C146.47140618 38.21735982 146.25590835 39.68480755 146.04101562 41.15234375 C145.36334126 45.76862106 144.68160279 50.3843011 144 55 C140.90663793 76.65353448 137.95538152 98.3272022 135 120 C90.45 120 45.9 120 0 120 C0 80.4 0 40.8 0 0 Z " fill="#FEFEFE" transform="translate(1196,1019)"/>
<path d="M0 0 C2.41419243 0.19131336 4.78377564 0.45081298 7.18359375 0.76171875 C7.93877792 0.85523117 8.6939621 0.94874359 9.47203064 1.04508972 C11.98211258 1.3576403 14.4910512 1.6784886 17 2 C18.72018346 2.21720832 20.44039873 2.4341649 22.16064453 2.65087891 C26.80267702 3.23792358 31.44369754 3.83263985 36.08447266 4.42953491 C41.24484841 5.09314324 46.40560195 5.75379624 51.56640625 6.4140625 C52.60975128 6.547556 53.65309631 6.6810495 54.72805786 6.81858826 C64.9828166 8.12880391 75.24105398 9.4105585 85.5 10.6875 C99.33963672 12.41163039 113.17494136 14.16199929 127 16 C128.27311035 16.16918945 129.5462207 16.33837891 130.85791016 16.51269531 C139.57243944 17.67139773 148.2864002 18.83432783 157 20 C155.53771405 28.37423069 153.84420665 36.68836092 152.0625 45 C151.81048828 46.19367187 151.55847656 47.38734375 151.29882812 48.6171875 C149.94823635 54.93146311 148.44989435 61.16000455 146.70776367 67.37695312 C145.51469672 71.79858519 144.5737626 76.27071923 143.625 80.75 C143.19670564 82.74611329 142.7683172 84.74220639 142.33984375 86.73828125 C142.12183105 87.75873535 141.90381836 88.77918945 141.67919922 89.83056641 C140.52805135 95.20231393 139.35672338 100.56966354 138.1875 105.9375 C137.7642324 107.8840949 137.34104676 109.83070763 136.91796875 111.77734375 C136.61197917 113.18489583 136.30598958 114.59244792 136 116 C126.44635338 116.21359779 117.01319372 115.39411472 107.5 114.625 C105.7475878 114.48604067 103.99514605 114.34745352 102.24267578 114.20922852 C98.76354411 113.9345221 95.28456105 113.65803256 91.80566406 113.38037109 C86.55518877 112.96279322 81.30318039 112.56816467 76.05078125 112.17553711 C67.85619608 111.5613212 59.67588926 110.88873755 51.5 110.0625 C38.66503073 108.77073261 25.78917362 107.94872852 12.921875 107.05297852 C11.15494435 106.92990146 9.38801718 106.80677439 7.62109375 106.68359375 C6.77618378 106.62472488 5.9312738 106.56585602 5.0607605 106.50520325 C-1.2976288 106.058413 -7.6505053 105.56022562 -14 105 C-13.45336832 95.35175976 -12.41652391 85.86374888 -11.07315063 76.30059814 C-10.62452304 73.10669508 -10.18597559 69.91142864 -9.7467804 66.71621704 C-9.51621812 65.03920919 -9.28516557 63.36226868 -9.05363464 61.68539429 C-7.76477228 52.33743013 -6.53716271 42.98155381 -5.3125 33.625 C-5.10843438 32.06770362 -4.90433373 30.51041184 -4.70019531 28.953125 C-4.60235748 28.20633484 -4.50451965 27.45954468 -4.40371704 26.69012451 C-4.21262588 25.23371954 -4.02104989 23.77737809 -3.82894897 22.32110596 C-3.35812762 18.75009834 -2.89522862 15.17838343 -2.44677734 11.60449219 C-2.357686 10.90649506 -2.26859467 10.20849792 -2.17680359 9.48934937 C-1.93311935 7.57966823 -1.69335814 5.66948766 -1.45385742 3.75927734 C-1 1 -1 1 0 0 Z " fill="#FDFDFD" transform="translate(1417,879)"/>
<path d="M0 0 C2.50421049 -0.01545809 5.00842102 -0.0308617 7.51263428 -0.04586792 C9.43568646 -0.05811137 11.35872056 -0.07328194 13.28173828 -0.09008789 C17.99682084 -0.10414517 22.35336987 0.14019049 27 1 C30.49491738 1.35433602 33.9973471 1.60961321 37.5 1.875 C39.77604614 2.05202581 42.05208751 2.22911299 44.328125 2.40625 C45.56498047 2.50164062 46.80183594 2.59703125 48.07617188 2.6953125 C52.12936813 3.01004551 56.1819291 3.33203803 60.234375 3.65625 C63.23956006 3.89612578 66.24477156 4.1356683 69.25 4.375 C70.0180899 4.43619019 70.78617981 4.49738037 71.57754517 4.5604248 C82.42300853 5.42242678 93.27090237 6.24656426 104.12109375 7.046875 C106.55631749 7.22734405 108.99153885 7.40784534 111.42675781 7.58837891 C116.22398305 7.94388081 121.02155032 8.2942425 125.81933594 8.64208984 C128.02931072 8.80547695 130.2392723 8.96904263 132.44921875 9.1328125 C133.98406166 9.24203033 133.98406166 9.24203033 135.5499115 9.35345459 C136.95932762 9.45910736 136.95932762 9.45910736 138.3972168 9.56689453 C139.21747849 9.62668488 140.03774017 9.68647522 140.88285828 9.74807739 C143 10 143 10 146 11 C145.53181027 18.60877304 144.28629636 25.64743685 142.3125 33 C140.07036432 41.6565522 137.97847728 50.32785982 136.0625 59.0625 C135.82160645 60.15739746 135.58071289 61.25229492 135.33251953 62.38037109 C134.82759783 64.67778134 134.3232181 66.97531075 133.81933594 69.27294922 C132.44524378 75.52351265 131.05807672 81.7710866 129.65890503 88.01608276 C129.34570778 89.41722834 129.03395025 90.81869655 128.72366333 92.2204895 C128.2918247 94.17118471 127.85501742 96.12077798 127.41796875 98.0703125 C127.16813232 99.19195801 126.9182959 100.31360352 126.66088867 101.46923828 C126 104 126 104 125 105 C123.21572813 105.09636838 121.42760347 105.12187453 119.64073181 105.12025452 C118.47820389 105.12162918 117.31567596 105.12300385 116.11791992 105.12442017 C114.83111328 105.12082489 113.54430664 105.11722961 112.21850586 105.11352539 C110.85876976 105.11324352 109.4990335 105.11340125 108.13929749 105.1139679 C104.43698222 105.11425587 100.73469908 105.10835912 97.03239131 105.10139394 C93.16731219 105.09516043 89.30223242 105.0945566 85.43714905 105.09336853 C78.11315318 105.09025521 70.78917216 105.0820418 63.46518284 105.07201904 C55.12916552 105.06085794 46.79314751 105.05534746 38.45712459 105.05032361 C21.30474112 105.03985919 4.15237213 105.02225973 -13 105 C-12.8516331 102.80638527 -12.70082472 100.61293561 -12.54902649 98.41955566 C-12.42345855 96.58731319 -12.42345855 96.58731319 -12.29535389 94.71805573 C-11.8330697 88.89860177 -11.07190516 83.12795449 -10.29296875 77.34375 C-10.12630203 76.08075073 -9.95963531 74.81775146 -9.78791809 73.51647949 C-9.34762746 70.18051265 -8.90238103 66.84522654 -8.45599365 63.5100708 C-8.01643916 60.21935742 -7.58172793 56.92800466 -7.14648438 53.63671875 C-6.19330622 46.43783447 -5.23376532 39.23981056 -4.27257538 32.04199219 C-3.79656674 28.47598442 -3.3214091 24.90986325 -2.84619141 21.34375 C-1.89802406 14.2290915 -0.94922838 7.11451703 0 0 Z " fill="#FDFDFD" transform="translate(1395,1034)"/>
<path d="M0 0 C9.37362832 5.96229176 16.20685146 13.53738175 20 24 C20.53560547 25.39992188 20.53560547 25.39992188 21.08203125 26.828125 C24.29929205 37.94478786 21.96164128 49.4138784 16.71484375 59.4609375 C10.30564558 69.92274844 1.27382451 76.26566254 -10.5 79.25 C-21.46315516 81.35174477 -32.02693332 79.6662836 -41.6875 73.9375 C-51.54413057 67.1246197 -58.39173836 58.86257455 -61 47 C-62.49826407 34.62814034 -61.25876081 23.50796386 -53.75 13.25 C-40.52926971 -2.50775743 -19.22715834 -10.36249075 0 0 Z " fill="#FCFCFC" transform="translate(1437,1565)"/>
<path d="M0 0 C8.90232713 6.20045352 16.06890318 14.70320817 18.2734375 25.47265625 C19.94937526 38.08874327 19.17166457 49.97643687 11.4453125 60.4609375 C3.99310265 69.19202234 -4.63932637 75.89953483 -16.3046875 77.6484375 C-30.94659322 78.52776983 -40.63293911 75.22216103 -52.0546875 66.0234375 C-59.67801641 58.98029114 -63.80147218 48.82154313 -64.51953125 38.5859375 C-64.71984724 31.66301682 -64.11590464 25.98272504 -61.3046875 19.6484375 C-61.01464844 18.96136719 -60.72460938 18.27429687 -60.42578125 17.56640625 C-55.54490661 6.88566383 -46.86244549 -0.2479118 -36.1171875 -4.7890625 C-23.46982299 -8.89187468 -11.28529906 -6.61815843 0 0 Z " fill="#FBFCFB" transform="translate(846.3046875,1567.3515625)"/>
<path d="M0 0 C44.55 0 89.1 0 135 0 C130.47141042 6.79288437 130.47141042 6.79288437 127.0625 9.25 C126.41410156 9.72953125 125.76570313 10.2090625 125.09765625 10.703125 C121.08366743 13.18477172 117.63375201 14.25055112 112.91899109 14.24050903 C111.91924759 14.24325836 110.91950409 14.24600769 109.88946533 14.24884033 C108.80405457 14.24164978 107.7186438 14.23445923 106.6003418 14.22705078 C104.87286461 14.22748886 104.87286461 14.22748886 103.11048889 14.22793579 C99.30665535 14.22654327 95.50301805 14.2109854 91.69921875 14.1953125 C89.06077685 14.1915821 86.42233356 14.18873526 83.78388977 14.18673706 C77.55081227 14.18052692 71.31780513 14.16412243 65.08475858 14.14403808 C57.98684322 14.12166456 50.88892446 14.110682 43.7909826 14.10064721 C29.19395125 14.07975577 14.59697897 14.04418484 0 14 C0 9.38 0 4.76 0 0 Z " fill="#FAFBFA" transform="translate(1374,1190)"/>
<path d="M0 0 C42.24 0 84.48 0 128 0 C127.34 4.62 126.68 9.24 126 14 C84.42 14 42.84 14 0 14 C0 9.38 0 4.76 0 0 Z " fill="#FCFCFC" transform="translate(1196,1190)"/>
<path d="M0 0 C38.94 0 77.88 0 118 0 C118 4.62 118 9.24 118 14 C80.05 14 42.1 14 3 14 C2.01 9.38 1.02 4.76 0 0 Z " fill="#FCFCFC" transform="translate(1028,1190)"/>
<path d="M0 0 C37.29 0 74.58 0 113 0 C115 8 115 8 115 14 C77.71 14 40.42 14 2 14 C0 4 0 4 0 0 Z " fill="#FBFBFB" transform="translate(865,1190)"/>
<path d="M0 0 C0.33 0 0.66 0 1 0 C1 5.28 1 10.56 1 16 C0.67 16 0.34 16 0 16 C-0.33 14.02 -0.66 12.04 -1 10 C-1.66 10.66 -2.32 11.32 -3 12 C-2.67 10.35 -2.34 8.7 -2 7 C-1.67 7 -1.34 7 -1 7 C-0.67 4.69 -0.34 2.38 0 0 Z " fill="#3C3C3B" transform="translate(1542,1433)"/>
</svg>
