<?xml version="1.0" encoding="UTF-8"?>
<svg version="1.1" xmlns="http://www.w3.org/2000/svg" width="2048" height="2102">
<path d="M0 0 C675.84 0 1351.68 0 2048 0 C2048 693.66 2048 1387.32 2048 2102 C1372.16 2102 696.32 2102 0 2102 C0 1408.34 0 714.68 0 0 Z " fill="#FEFEFE" transform="translate(0,0)"/>
<path d="M0 0 C0.69129375 0.0000919 1.38258751 0.00018379 2.09482956 0.00027847 C24.42438353 0.0041079 46.29053668 0.88768439 68.375 4.375 C69.71951616 4.57628027 71.06424677 4.7761329 72.40917969 4.97460938 C95.24247087 8.3604407 117.07935532 13.37525835 138.99121094 20.59667969 C142.14881032 21.62765335 145.3211692 22.59898804 148.5 23.5625 C152.50617953 24.79356558 156.50995801 26.0299865 160.5 27.3125 C161.36882813 27.58964844 162.23765625 27.86679687 163.1328125 28.15234375 C166.96906388 29.5990265 170.64967836 31.30668158 174.37255859 33.02124023 C177.3360246 34.35742653 180.32032586 35.61483537 183.328125 36.84765625 C214.55171641 49.65214344 244.34346496 66.09526054 271.375 86.375 C272.65310547 87.332854 272.65310547 87.332854 273.95703125 88.31005859 C299.91253216 107.8271635 299.91253216 107.8271635 309.1875 116.625 C310.25499016 117.63182264 311.32397627 118.6370618 312.39453125 119.640625 C313.14210693 120.34155273 313.14210693 120.34155273 313.90478516 121.05664062 C315.29995092 122.30770259 316.77982633 123.46236219 318.26171875 124.609375 C319.30779297 125.48335937 319.30779297 125.48335937 320.375 126.375 C320.375 127.035 320.375 127.695 320.375 128.375 C320.96885498 128.6436084 321.56270996 128.9122168 322.17456055 129.18896484 C324.38487445 130.38032232 325.82147183 131.57711898 327.58203125 133.3515625 C328.16509033 133.93583008 328.74814941 134.52009766 329.34887695 135.12207031 C330.25899536 136.05164551 330.25899536 136.05164551 331.1875 137 C331.81551514 137.63518555 332.44353027 138.27037109 333.09057617 138.92480469 C336.76869139 142.66746502 340.35315048 146.45964004 343.74609375 150.46484375 C345.69737716 152.7530394 347.72317687 154.9659906 349.75 157.1875 C358.3664831 166.76298459 366.16895986 176.91261058 373.81005859 187.27001953 C375.30961537 189.28705206 376.83346377 191.28321589 378.36328125 193.27734375 C393.02872955 212.66811622 405.7407432 234.51541841 416.375 256.375 C416.78057129 257.2014502 417.18614258 258.02790039 417.60400391 258.87939453 C434.07474893 292.75181328 445.90296991 328.69885566 453.75927734 365.50439453 C454.31607637 368.10028783 454.89831304 370.68883826 455.48828125 373.27734375 C458.98625541 389.10575942 460.62899892 405.27582793 462.375 421.375 C462.46227356 422.12723343 462.54954712 422.87946686 462.63946533 423.65449524 C463.35330762 430.13864323 463.58076258 436.56926878 463.6484375 443.08984375 C463.66101089 444.20209824 463.67358429 445.31435272 463.6865387 446.46031189 C464.05261244 486.78835833 460.46579961 525.11059236 451.375 564.375 C451.1157373 565.51549805 450.85647461 566.65599609 450.58935547 567.83105469 C448.9457349 575.0372869 447.18825365 582.20980004 445.375 589.375 C445.13910156 590.32987305 444.90320312 591.28474609 444.66015625 592.26855469 C440.88480323 607.47710516 436.23024253 622.35851413 431.375 637.25 C430.93534912 638.59889313 430.93534912 638.59889313 430.48681641 639.97503662 C427.28142073 649.78316218 423.99497089 659.56130337 420.59765625 669.3046875 C420.31233032 670.12468231 420.02700439 670.94467712 419.73303223 671.78952026 C417.87068524 677.09336786 415.81930878 682.28441239 413.59765625 687.44921875 C412.21939047 690.74736914 410.98314227 694.08236934 409.75 697.4375 C401.48112839 719.75579699 391.96322357 741.59835663 382.375 763.375 C381.85711914 764.55255859 381.33923828 765.73011719 380.80566406 766.94335938 C363.44033119 806.3193886 345.24051194 845.66031847 324.89453125 883.58984375 C322.70927048 887.68394697 320.64247182 891.83245358 318.578125 895.98828125 C314.62291873 903.94001372 310.49735768 911.79224046 306.3125 919.625 C305.56962237 921.01857186 304.82686784 922.41220934 304.08422852 923.8059082 C302.57571693 926.63580604 301.06579183 929.46494285 299.5546875 932.29345703 C297.8462084 935.49157993 296.14099649 938.69142547 294.43725586 941.89207458 C285.25006449 959.14662628 275.87132525 976.28931948 266.375 993.375 C265.77300781 994.45910156 265.17101563 995.54320312 264.55078125 996.66015625 C256.24928483 1011.59551957 247.78796771 1026.43420691 239.20996094 1041.21240234 C237.4412855 1044.26075541 235.67742353 1047.31185188 233.9140625 1050.36328125 C222.63593461 1069.83664439 210.99013521 1089.08222485 199 1108.125 C191.00500267 1120.82776632 183.38146823 1133.74572689 175.75187683 1146.6696167 C169.25513032 1157.66553093 162.64656554 1168.59324463 156.0027771 1179.50076294 C150.9619961 1187.7779717 145.93571263 1196.06004605 141.0625 1204.4375 C136.24816535 1212.69426111 131.14731441 1220.76053603 126.00634766 1228.81689453 C124.29584186 1231.49912736 122.59080042 1234.18477545 120.88671875 1236.87109375 C113.33296809 1248.77215565 105.71008061 1260.62642349 98.02929688 1272.44580078 C92.80045394 1280.49408096 87.61151852 1288.56410467 82.5 1296.6875 C65.33255675 1323.93923877 47.51378506 1350.81096412 29.58544922 1377.56738281 C27.99197174 1379.946993 26.40331668 1382.32979192 24.81616211 1384.71362305 C24.03116871 1385.89087181 23.24426573 1387.06684983 22.45532227 1388.24145508 C19.70282061 1392.3469647 17.01061531 1396.4878371 14.3359375 1400.64453125 C12.89065882 1402.86720949 11.44534623 1405.08986568 10 1407.3125 C9.30938477 1408.39869629 8.61876953 1409.48489258 7.90722656 1410.60400391 C7.24948242 1411.60995605 6.59173828 1412.6159082 5.9140625 1413.65234375 C5.32834473 1414.56234131 4.74262695 1415.47233887 4.13916016 1416.40991211 C3.5569873 1417.05839111 2.97481445 1417.70687012 2.375 1418.375 C1.055 1418.375 -0.265 1418.375 -1.625 1418.375 C-3.45195019 1416.17912399 -4.95380103 1414.08429258 -6.484375 1411.69140625 C-7.46539936 1410.21103702 -8.44652414 1408.73073432 -9.42773438 1407.25048828 C-10.20588501 1406.06051239 -10.20588501 1406.06051239 -10.99975586 1404.84649658 C-13.21133437 1401.48336572 -15.47529985 1398.15696189 -17.73880005 1394.8286438 C-20.79605165 1390.3312709 -23.8344357 1385.82116421 -26.875 1381.3125 C-27.83493866 1379.88943542 -27.83493866 1379.88943542 -28.81427002 1378.43762207 C-37.64079222 1365.34742448 -46.40164886 1352.22295973 -54.95800781 1338.95410156 C-57.43350955 1335.12410737 -59.92868412 1331.30702868 -62.42260742 1327.48901367 C-76.50372862 1305.93153376 -90.45972177 1284.30088091 -104.0625 1262.4375 C-109.06881286 1254.39210518 -114.17431868 1246.42106824 -119.375 1238.5 C-124.18929318 1231.16416912 -128.89222835 1223.78143254 -133.43383789 1216.27392578 C-137.16747013 1210.10329835 -140.98120915 1203.98541011 -144.8125 1197.875 C-156.20635624 1179.67716747 -167.48329489 1161.42047956 -178.36328125 1142.91015625 C-181.83639253 1137.00491784 -185.35027176 1131.12454706 -188.875 1125.25 C-189.49785889 1124.21190186 -190.12071777 1123.17380371 -190.76245117 1122.10424805 C-194.07762225 1116.58796885 -197.40765631 1111.08103578 -200.7578125 1105.5859375 C-208.89466246 1092.23649171 -216.92343696 1078.83362339 -224.80322266 1065.33056641 C-228.28652913 1059.36171327 -231.78674621 1053.40642672 -235.375 1047.5 C-240.19385618 1039.51499747 -244.74109387 1031.37841374 -249.3125 1023.25 C-251.85192538 1018.7367753 -254.4181508 1014.23992743 -256.99975586 1009.75073242 C-263.07396254 999.18559419 -268.98410402 988.53467656 -274.84301758 977.84912109 C-278.77944305 970.68007804 -282.78692515 963.56143084 -286.87890625 956.48022461 C-288.47115132 953.64860197 -289.95063453 950.79387868 -291.375 947.875 C-294.19767678 942.10692137 -297.27695008 936.4979073 -300.375 930.875 C-304.69768984 923.01416783 -308.86117655 915.09951078 -312.79980469 907.0390625 C-315.46768425 901.60226556 -318.27068438 896.24541949 -321.10546875 890.89453125 C-327.51664207 878.76837165 -333.67474809 866.51629746 -339.8125 854.25 C-340.25563097 853.36506363 -340.25563097 853.36506363 -340.70771408 852.46224976 C-349.92661351 834.04882788 -358.84097346 815.5386073 -367.15380859 796.69775391 C-369.39571813 791.63429743 -371.69934049 786.59945212 -374 781.5625 C-374.79471744 779.81140054 -375.58900364 778.06010528 -376.3828125 776.30859375 C-377.82500537 773.1289608 -379.27856632 769.9549765 -380.7421875 766.78515625 C-392.38366253 741.43600516 -402.58269509 715.39052109 -412.625 689.375 C-412.91746613 688.62653809 -413.20993225 687.87807617 -413.51126099 687.10693359 C-418.74568557 673.70819155 -423.43166005 660.1997266 -427.8125 646.5 C-428.70196976 643.73654216 -429.59300752 640.97359325 -430.48416138 638.2106781 C-431.05915711 636.42699506 -431.63329242 634.64303439 -432.20651245 632.85877991 C-434.27540493 626.42563552 -436.40422756 620.01476707 -438.57543945 613.61547852 C-440.52173703 607.60635832 -442.07539547 601.49586608 -443.625 595.375 C-443.81562012 594.6315332 -444.00624023 593.88806641 -444.20263672 593.12207031 C-451.28316271 565.4960374 -457.3601716 537.75989731 -460.875 509.4375 C-460.95799347 508.7692218 -461.04098694 508.1009436 -461.12649536 507.41241455 C-461.66014654 503.07012057 -462.15515694 498.72463084 -462.625 494.375 C-462.73175049 493.39966309 -462.83850098 492.42432617 -462.94848633 491.41943359 C-463.8368144 482.25138167 -463.82548232 473.07724786 -463.8125 463.875 C-463.81156342 463.01474213 -463.81062683 462.15448425 -463.80966187 461.26815796 C-463.64505117 391.10751178 -448.53444057 319.09449983 -415.82519531 256.68115234 C-414.38195187 253.90798766 -412.96911756 251.11999945 -411.5546875 248.33203125 C-406.11213219 237.65711037 -400.67261232 227.15895841 -393.90039062 217.25732422 C-392.39297528 215.03255923 -390.92311061 212.7848243 -389.453125 210.53515625 C-378.16206673 193.31402078 -366.29047373 176.79245754 -352.625 161.375 C-351.49979988 160.06267156 -350.37476899 158.75019797 -349.25 157.4375 C-336.21052056 142.63847634 -322.67018449 127.59597091 -307.13671875 115.3828125 C-304.51407161 113.28632629 -302.03968165 111.07844911 -299.5625 108.8125 C-278.20310221 89.44930761 -253.67174313 73.71784764 -228.66113281 59.54150391 C-225.91399508 57.96766409 -223.21051359 56.32340943 -220.5 54.6875 C-213.79526801 50.76939302 -206.77181707 47.57327858 -199.71826172 44.34375 C-197.78186841 43.44759783 -195.85980588 42.52767343 -193.94140625 41.59375 C-184.26052546 36.92826528 -174.3408839 33.08362974 -164.26513672 29.35693359 C-161.73455052 28.41574461 -159.21225899 27.45519061 -156.69140625 26.48828125 C-146.85085494 22.74170001 -136.98355556 19.63660079 -126.80175781 16.96337891 C-124.71751466 16.40000677 -122.65210151 15.79406379 -120.5859375 15.16796875 C-98.5244604 8.55952247 -75.47131562 4.93345485 -52.625 2.375 C-51.41263672 2.23561508 -51.41263672 2.23561508 -50.17578125 2.09341431 C-33.46464628 0.21416964 -16.80143035 -0.02417562 0 0 Z " fill="#000000" transform="translate(1044.625,264.625)"/>
<path d="M0 0 C1.66222821 1.49297397 3.31528008 2.99625613 4.95703125 4.51171875 C7.8517755 7.16564387 10.84664774 9.69239278 13.859375 12.2109375 C15.2578125 13.62109375 15.2578125 13.62109375 15.2578125 15.62109375 C15.9178125 15.62109375 16.5778125 15.62109375 17.2578125 15.62109375 C17.2578125 16.28109375 17.2578125 16.94109375 17.2578125 17.62109375 C17.9178125 17.62109375 18.5778125 17.62109375 19.2578125 17.62109375 C20.65654374 19.12533274 21.97576519 20.70374524 23.2578125 22.30859375 C24.05832031 23.31019531 24.85882812 24.31179688 25.68359375 25.34375 C26.54257943 26.43548036 27.40063525 27.52794292 28.2578125 28.62109375 C28.68755371 29.16620605 29.11729492 29.71131836 29.56005859 30.27294922 C37.41619186 40.26015798 44.38080126 50.3321585 50.2578125 61.62109375 C50.56477051 62.20777832 50.87172852 62.79446289 51.18798828 63.39892578 C77.43987989 113.82296272 84.08776727 171.88424472 67.2578125 226.62109375 C49.35583572 282.90061 9.19491773 327.98945023 -42.67480469 355.6171875 C-51.08820903 359.94917762 -59.85600896 363.39240883 -68.7421875 366.62109375 C-69.89485107 367.04285889 -69.89485107 367.04285889 -71.07080078 367.47314453 C-103.69725878 379.09285359 -140.8509968 381.16574688 -174.7421875 374.62109375 C-176.29283253 374.35077992 -177.84361398 374.08124748 -179.39453125 373.8125 C-228.3696851 364.86590625 -275.19791511 335.89935033 -305.7421875 296.62109375 C-306.45060791 295.71133789 -306.45060791 295.71133789 -307.17333984 294.78320312 C-317.70705954 281.18999521 -326.37270956 267.16305769 -333.7421875 251.62109375 C-334.26683594 250.53699219 -334.79148437 249.45289063 -335.33203125 248.3359375 C-358.40156308 197.97459877 -357.77356056 138.70664148 -338.83328247 87.3526001 C-334.75749311 76.49579547 -329.88955849 66.4441148 -323.7421875 56.62109375 C-322.81587203 55.10970229 -321.89010205 53.59797638 -320.96484375 52.0859375 C-317.96402465 47.21564259 -314.91563926 42.38127138 -311.7421875 37.62109375 C-311.0821875 37.62109375 -310.4221875 37.62109375 -309.7421875 37.62109375 C-309.53078125 36.93789063 -309.319375 36.2546875 -309.1015625 35.55078125 C-307.31327769 31.69671916 -304.79979912 28.90294487 -301.9921875 25.74609375 C-301.47914063 25.15957031 -300.96609375 24.57304688 -300.4375 23.96875 C-299.40003089 22.78269863 -298.35965446 21.59918417 -297.31640625 20.41821289 C-295.71304106 18.58782034 -294.14106069 16.73340859 -292.5703125 14.875 C-290.58035284 12.55013519 -288.58833758 10.40900785 -286.2421875 8.43359375 C-285.57445312 7.86640625 -284.90671875 7.29921875 -284.21875 6.71484375 C-283.40148437 6.02390625 -282.58421875 5.33296875 -281.7421875 4.62109375 C-280.60305066 3.63279528 -279.46512699 2.64309754 -278.328125 1.65234375 C-277.09129266 0.57925783 -275.85431258 -0.49365783 -274.6171875 -1.56640625 C-274.03130859 -2.07776123 -273.44542969 -2.58911621 -272.84179688 -3.1159668 C-269.299056 -6.16993325 -265.69153674 -8.85340134 -261.7421875 -11.37890625 C-260.21464844 -12.39017578 -260.21464844 -12.39017578 -258.65625 -13.421875 C-246.48559719 -21.3573719 -234.22893438 -28.49145332 -220.8671875 -34.25390625 C-220.01181396 -34.62322266 -219.15644043 -34.99253906 -218.27514648 -35.37304688 C-212.52852654 -37.78659392 -206.73424237 -39.67733193 -200.7421875 -41.37890625 C-199.59492187 -41.72953125 -198.44765625 -42.08015625 -197.265625 -42.44140625 C-189.16480787 -44.85356023 -181.04942124 -46.68706822 -172.71728516 -48.05419922 C-170.87285785 -48.35742398 -169.03194596 -48.68182032 -167.19140625 -49.0078125 C-108.13976155 -58.07804364 -44.9226194 -38.97133222 0 0 Z " fill="#FEFEFE" transform="translate(1182.7421875,549.37890625)"/>
<path d="M0 0 C0.495 1.485 0.495 1.485 1 3 C-0.55267578 2.89171875 -0.55267578 2.89171875 -2.13671875 2.78125 C-12.38404554 2.12607393 -22.60688297 1.89082652 -32.875 1.875 C-34.07342529 1.87048828 -35.27185059 1.86597656 -36.5065918 1.86132812 C-44.38045295 1.87433113 -52.15921771 2.28393937 -60 3 C-60 2.01 -60 1.02 -60 0 C-40.15491454 -3.61406434 -19.91467062 -2.49211521 0 0 Z " fill="#111111" transform="translate(1075,498)"/>
<path d="M0 0 C2.83339965 -0.02724423 5.66653117 -0.04695589 8.5 -0.0625 C9.29148437 -0.07087891 10.08296875 -0.07925781 10.8984375 -0.08789062 C16.02761717 -0.10891185 20.92336106 0.26062713 26 1 C26.33 1.99 26.66 2.98 27 4 C13.14 3.01 13.14 3.01 -1 2 C-0.67 1.34 -0.34 0.68 0 0 Z " fill="#181818" transform="translate(1049,497)"/>
<path d="M0 0 C0.99 0 1.98 0 3 0 C7 5.25714286 7 5.25714286 7 8 C7.66 8 8.32 8 9 8 C12.22265625 13.17578125 12.22265625 13.17578125 13 15 C12.67 15.99 12.34 16.98 12 18 C9.02435843 14.38097647 6.34413214 10.6508061 3.75 6.75 C3.04359375 5.69296875 2.3371875 4.6359375 1.609375 3.546875 C0 1 0 1 0 0 Z " fill="#141414" transform="translate(1004,1624)"/>
<path d="M0 0 C0.99 0.99 1.98 1.98 3 3 C2.67 3.763125 2.34 4.52625 2 5.3125 C0.82563314 7.99069135 0.82563314 7.99069135 1 11 C0.34 11 -0.32 11 -1 11 C-4.22265625 5.7265625 -4.22265625 5.7265625 -5 4 C-3.74458443 1.48916886 -2.49936512 1.12874554 0 0 Z " fill="#0D0D0D" transform="translate(949,1528)"/>
<path d="M0 0 C0.99 0.99 1.98 1.98 3 3 C-0.96 8.94 -0.96 8.94 -5 15 C-5.66 14.67 -6.32 14.34 -7 14 C-2.98181818 3.49090909 -2.98181818 3.49090909 0 2 C0 1.34 0 0.68 0 0 Z " fill="#161717" transform="translate(1143,1529)"/>
<path d="M0 0 C0.66 0.33 1.32 0.66 2 1 C2 2.65 2 4.3 2 6 C2.66 6.33 3.32 6.66 4 7 C4.72693904 8.97888961 5.39816251 10.97954558 6 13 C5.01 13.495 5.01 13.495 4 14 C1.69 10.37 -0.62 6.74 -3 3 C-2.01 2.01 -1.02 1.02 0 0 Z " fill="#161615" transform="translate(995,1604)"/>
<path d="M0 0 C0.66 0.66 1.32 1.32 2 2 C0.02 4.97 0.02 4.97 -2 8 C-4.62187494 6.95125002 -5.79371361 6.35068687 -7.25 3.875 C-7.4975 3.25625 -7.745 2.6375 -8 2 C-3.25 1 -3.25 1 -1 1 C-0.67 0.67 -0.34 0.34 0 0 Z " fill="#171817" transform="translate(1048,1676)"/>
<path d="M0 0 C0.66 0 1.32 0 2 0 C1.34097701 3.57040303 -0.16229158 6.17732255 -2.0625 9.25 C-2.61035156 10.14203125 -3.15820312 11.0340625 -3.72265625 11.953125 C-4.14417969 12.62859375 -4.56570313 13.3040625 -5 14 C-5.66 13.67 -6.32 13.34 -7 13 C-5.47569308 7.95806174 -3.76143005 3.76143005 0 0 Z " fill="#111211" transform="translate(1077,1632)"/>
<path d="M0 0 C0.66 0 1.32 0 2 0 C2 0.66 2 1.32 2 2 C2.66 2 3.32 2 4 2 C4.28875 2.78375 4.5775 3.5675 4.875 4.375 C5.84912254 7.09671632 5.84912254 7.09671632 8 9 C7.67 9.99 7.34 10.98 7 12 C6.34 12 5.68 12 5 12 C3.02 8.37 1.04 4.74 -1 1 C-0.67 0.67 -0.34 0.34 0 0 Z " fill="#151515" transform="translate(903,1464)"/>
<path d="M0 0 C0.99 0.33 1.98 0.66 3 1 C0.69 4.63 -1.62 8.26 -4 12 C-4.66 11.34 -5.32 10.68 -6 10 C-6 9.01 -6 8.02 -6 7 C-5.34 6.67 -4.68 6.34 -4 6 C-2.96986723 4.35178756 -1.96885372 2.68496298 -1 1 C-0.67 0.67 -0.34 0.34 0 0 Z " fill="#131313" transform="translate(1119,1568)"/>
<path d="M0 0 C0.99 0 1.98 0 3 0 C3 0.66 3 1.32 3 2 C3.99 1.67 4.98 1.34 6 1 C5.67 2.65 5.34 4.3 5 6 C5.66 6 6.32 6 7 6 C7.33 7.65 7.66 9.3 8 11 C5 10 5 10 3.61328125 7.71484375 C3.18402344 6.79832031 2.75476563 5.88179687 2.3125 4.9375 C1.87550781 4.01839844 1.43851563 3.09929687 0.98828125 2.15234375 C0.49908203 1.08693359 0.49908203 1.08693359 0 0 Z " fill="#151616" transform="translate(872,1416)"/>
<path d="M0 0 C0.66 0 1.32 0 2 0 C2.33 0.99 2.66 1.98 3 3 C1.56640625 5.69921875 1.56640625 5.69921875 -0.4375 8.6875 C-1.09621094 9.68136719 -1.75492188 10.67523437 -2.43359375 11.69921875 C-3.20896484 12.83810547 -3.20896484 12.83810547 -4 14 C-4.66 13.34 -5.32 12.68 -6 12 C-4.02 8.04 -2.04 4.08 0 0 Z " fill="#171717" transform="translate(1237,1376)"/>
<path d="M0 0 C0.66 0 1.32 0 2 0 C0.43358249 4.30764815 -1.68336156 8.06171464 -4 12 C-4.66 11.67 -5.32 11.34 -6 11 C-6 10.01 -6 9.02 -6 8 C-5.34 8 -4.68 8 -4 8 C-3.71125 7.05125 -3.4225 6.1025 -3.125 5.125 C-2 2 -2 2 0 0 Z " fill="#171818" transform="translate(1200,1440)"/>
<path d="M0 0 C1.32 0.33 2.64 0.66 4 1 C5.25 3.5625 5.25 3.5625 6 6 C6.66 6 7.32 6 8 6 C8 6.66 8 7.32 8 8 C7.01 8.33 6.02 8.66 5 9 C3.35 6.03 1.7 3.06 0 0 Z " fill="#181818" transform="translate(984,1594)"/>
<path d="M0 0 C1.485 0.99 1.485 0.99 3 2 C3 2.66 3 3.32 3 4 C4.65 4.33 6.3 4.66 8 5 C8 5.66 8 6.32 8 7 C6.35 7.33 4.7 7.66 3 8 C1.02 4.535 1.02 4.535 -1 1 C-0.67 0.67 -0.34 0.34 0 0 Z " fill="#151515" transform="translate(1035,1668)"/>
<path d="M0 0 C2.56995074 1.28497537 2.90434463 2.49912373 4.125 5.0625 C4.47820313 5.79597656 4.83140625 6.52945312 5.1953125 7.28515625 C5.46085938 7.85105469 5.72640625 8.41695312 6 9 C5.01 9 4.02 9 3 9 C1.68 6.36 0.36 3.72 -1 1 C-0.67 0.67 -0.34 0.34 0 0 Z " fill="#171717" transform="translate(859,1392)"/>
<path d="M0 0 C-1.32 2.31 -2.64 4.62 -4 7 C-4.66 6.67 -5.32 6.34 -6 6 C-6 4.02 -6 2.04 -6 0 C-3 -1 -3 -1 0 0 Z " fill="#121313" transform="translate(1247,1367)"/>
<path d="M0 0 C0.66 0.33 1.32 0.66 2 1 C2.625 4.0625 2.625 4.0625 3 7 C2.01 7.33 1.02 7.66 0 8 C-0.99 6.02 -1.98 4.04 -3 2 C-2.01 1.34 -1.02 0.68 0 0 Z " fill="#141414" transform="translate(1027,1652)"/>
<path d="M0 0 C0.66 0.33 1.32 0.66 2 1 C0.35 3.64 -1.3 6.28 -3 9 C-3.66 7.68 -4.32 6.36 -5 5 C-4.67 4.34 -4.34 3.68 -4 3 C-3.34 3 -2.68 3 -2 3 C-2 2.34 -2 1.68 -2 1 C-1.34 0.67 -0.68 0.34 0 0 Z " fill="#1D1E1D" transform="translate(1126,1559)"/>
<path d="M0 0 C0.99 0 1.98 0 3 0 C1.8141763 3.37503669 0.72426311 5.64722731 -2 8 C-3.125 4.25 -3.125 4.25 -2 2 C-1.34 1.34 -0.68 0.68 0 0 Z " fill="#151515" transform="translate(1204,1432)"/>
<path d="M0 0 C0.66 0 1.32 0 2 0 C3.06775224 1.96466413 4.06553465 3.96855359 5 6 C4.67 6.66 4.34 7.32 4 8 C3.34 8 2.68 8 2 8 C1.01 5.69 0.02 3.38 -1 1 C-0.67 0.67 -0.34 0.34 0 0 Z " fill="#F2F2F2" transform="translate(866,1409)"/>
<path d="M0 0 C1.65 0.33 3.3 0.66 5 1 C2.06171403 3.50298434 -0.17902761 4.46930939 -4 5 C-4.33 4.34 -4.66 3.68 -5 3 C-4.34 3 -3.68 3 -3 3 C-2.67 2.34 -2.34 1.68 -2 1 C-1.34 1.33 -0.68 1.66 0 2 C0 1.34 0 0.68 0 0 Z " fill="#202020" transform="translate(960,513)"/>
<path d="M0 0 C-2.31 1.65 -4.62 3.3 -7 5 C-7.33 3.35 -7.66 1.7 -8 0 C-4.71303767 -0.79953138 -3.28976808 -1.09658936 0 0 Z " fill="#151616" transform="translate(913,545)"/>
<path d="M0 0 C0.99 0 1.98 0 3 0 C3 0.99 3 1.98 3 3 C2.34 3 1.68 3 1 3 C1 3.66 1 4.32 1 5 C0.01 5 -0.98 5 -2 5 C-2 5.66 -2 6.32 -2 7 C-2.66 6.67 -3.32 6.34 -4 6 C-2.1875 3 -2.1875 3 0 0 Z " fill="#EEEFEE" transform="translate(1140,1540)"/>
<path d="M0 0 C0.99 0.33 1.98 0.66 3 1 C3 4 3 4 1.125 6.1875 C-1 8 -1 8 -3 8 C-1.125 2.25 -1.125 2.25 0 0 Z " fill="#E5E5E5" transform="translate(1396,1093)"/>
<path d="M0 0 C0.66 0 1.32 0 2 0 C2 0.66 2 1.32 2 2 C2.66 2 3.32 2 4 2 C4.66 3.65 5.32 5.3 6 7 C5.01 7.33 4.02 7.66 3 8 C0 3.375 0 3.375 0 0 Z " fill="#151514" transform="translate(953,1544)"/>
<path d="M0 0 C0.66 0.33 1.32 0.66 2 1 C0.68 3.31 -0.64 5.62 -2 8 C-2.66 6.68 -3.32 5.36 -4 4 C-2.68 2.68 -1.36 1.36 0 0 Z " fill="#1A1B1C" transform="translate(1172,1487)"/>
<path d="M0 0 C0.99 0 1.98 0 3 0 C3 0.66 3 1.32 3 2 C3.66 2 4.32 2 5 2 C5 3.98 5 5.96 5 8 C2.74754119 5.31158141 1.11786042 3.35358125 0 0 Z " fill="#1C1C1C" transform="translate(914,1484)"/>
<path d="M0 0 C0.66 0.33 1.32 0.66 2 1 C0.625 3.5 0.625 3.5 -1 6 C-1.66 6 -2.32 6 -3 6 C-3.33 4.68 -3.66 3.36 -4 2 C-2.125 0.9375 -2.125 0.9375 0 0 Z " fill="#141514" transform="translate(1253,1353)"/>
<path d="M0 0 C0.66 0.66 1.32 1.32 2 2 C0.515 4.475 0.515 4.475 -1 7 C-1.99 6.67 -2.98 6.34 -4 6 C-3.67 4.68 -3.34 3.36 -3 2 C-2.01 2 -1.02 2 0 2 C0 1.34 0 0.68 0 0 Z " fill="#0F0E0F" transform="translate(1300,1272)"/>
<path d="M0 0 C0.66 0 1.32 0 2 0 C2.99 2.31 3.98 4.62 5 7 C4.01 7.495 4.01 7.495 3 8 C1.02 4.535 1.02 4.535 -1 1 C-0.67 0.67 -0.34 0.34 0 0 Z " fill="#1C1C1B" transform="translate(979,1584)"/>
<path d="M0 0 C0.99 0.33 1.98 0.66 3 1 C3.33 1.99 3.66 2.98 4 4 C3.34 4.66 2.68 5.32 2 6 C1.01 6 0.02 6 -1 6 C-1.042721 4.33388095 -1.04063832 2.66617115 -1 1 C-0.67 0.67 -0.34 0.34 0 0 Z " fill="#F4F4F3" transform="translate(890,1449)"/>
<path d="M0 0 C0.66 0.33 1.32 0.66 2 1 C0.68 3.31 -0.64 5.62 -2 8 C-2.66 7.34 -3.32 6.68 -4 6 C-4 5.34 -4 4.68 -4 4 C-3.34 4 -2.68 4 -2 4 C-1.34 2.68 -0.68 1.36 0 0 Z " fill="#151515" transform="translate(1229,1392)"/>
<path d="M0 0 C0.33 0.66 0.66 1.32 1 2 C1.99 2 2.98 2 4 2 C3.34 3.65 2.68 5.3 2 7 C1.01 6.67 0.02 6.34 -1 6 C-0.67 4.02 -0.34 2.04 0 0 Z " fill="#121212" transform="translate(1260,1336)"/>
<path d="M0 0 C1.32 0.33 2.64 0.66 4 1 C3.34 2.32 2.68 3.64 2 5 C0.68 4.67 -0.64 4.34 -2 4 C-1.34 2.68 -0.68 1.36 0 0 Z " fill="#EFEFEE" transform="translate(1378,1130)"/>
<path d="M0 0 C1.04449911 3.13349732 0.93423645 3.98968256 0 7 C-1.32 6.67 -2.64 6.34 -4 6 C-2.68 4.02 -1.36 2.04 0 0 Z " fill="#E6E6E5" transform="translate(1086,1623)"/>
<path d="M0 0 C1.0625 1.8125 1.0625 1.8125 2 4 C1.67 4.99 1.34 5.98 1 7 C-0.32 6.67 -1.64 6.34 -3 6 C-2.01 4.02 -1.02 2.04 0 0 Z " fill="#EAECEA" transform="translate(1117,1575)"/>
<path d="M0 0 C1.32 0.66 2.64 1.32 4 2 C3.34 2 2.68 2 2 2 C1.67 2.99 1.34 3.98 1 5 C-1.0625 6.1875 -1.0625 6.1875 -3 7 C-1.125 2.25 -1.125 2.25 0 0 Z " fill="#E8E9E8" transform="translate(1187,1465)"/>
<path d="M0 0 C1.98 0.495 1.98 0.495 4 1 C3.67 2.65 3.34 4.3 3 6 C2.34 6 1.68 6 1 6 C-0.0625 4.125 -0.0625 4.125 -1 2 C-0.67 1.34 -0.34 0.68 0 0 Z " fill="#131413" transform="translate(881,1428)"/>
<path d="M0 0 C2.0625 0.4375 2.0625 0.4375 4 1 C3.67 2.32 3.34 3.64 3 5 C2.01 5 1.02 5 0 5 C-0.5625 3.0625 -0.5625 3.0625 -1 1 C-0.67 0.67 -0.34 0.34 0 0 Z " fill="#10100F" transform="translate(850,1376)"/>
<path d="M0 0 C0.99 0.33 1.98 0.66 3 1 C1.515 3.475 1.515 3.475 0 6 C-0.66 5.67 -1.32 5.34 -2 5 C-1.125 1.125 -1.125 1.125 0 0 Z " fill="#0F1010" transform="translate(1273,1318)"/>
<path d="M0 0 C0.33 0.66 0.66 1.32 1 2 C1.66 2 2.32 2 3 2 C3 2.99 3 3.98 3 5 C0.69 4.34 -1.62 3.68 -4 3 C-2.68 2.01 -1.36 1.02 0 0 Z " fill="#181817" transform="translate(1133,514)"/>
</svg>
