<?xml version="1.0" encoding="UTF-8"?>
<svg version="1.1" xmlns="http://www.w3.org/2000/svg" width="2048" height="2102">
<path d="M0 0 C675.84 0 1351.68 0 2048 0 C2048 693.66 2048 1387.32 2048 2102 C1372.16 2102 696.32 2102 0 2102 C0 1408.34 0 714.68 0 0 Z " fill="#FEFEFE" transform="translate(0,0)"/>
<path d="M0 0 C1.84615906 -0.00551376 1.84615906 -0.00551376 3.72961426 -0.01113892 C92.8569854 -0.1500337 184.03191246 25.34143383 257.78857422 76.13476562 C259.43808822 77.2698948 261.09585308 78.39300557 262.75390625 79.515625 C275.1586184 87.97822617 287.1326529 96.94009366 298.50390625 106.75 C301.20879036 109.06343413 303.96294539 111.28712055 306.75 113.5 C320.23331506 124.47616863 333.32888028 136.92144937 344.61328125 150.15234375 C346.88303431 152.75104653 349.25801515 155.23956153 351.625 157.75 C357.89342588 164.49877336 363.38975409 171.79730418 368.89453125 179.171875 C370.4150432 181.19922427 371.95351482 183.21117558 373.5 185.21875 C411.28370039 234.47619902 437.74902044 291.73274407 452.63867188 351.87158203 C453.23836505 354.26729507 453.8555955 356.65865783 454.48632812 359.04638672 C456.95193978 368.43789863 458.77045542 377.84259146 460.25537109 387.43652344 C460.62075958 389.78524258 461.00296227 392.13078348 461.38671875 394.4765625 C464.92577599 416.61176733 465.88166697 438.67021553 465.8125 461.0625 C465.80976578 462.90868927 465.80976578 462.90868927 465.80697632 464.79217529 C465.76279905 482.52208121 465.28129618 499.7795624 462.5 517.3125 C462.16718867 519.64051361 461.83519229 521.96864384 461.50390625 524.296875 C453.55457181 577.69489076 437.28134025 631.17055842 417.5 681.3125 C417.24089844 681.97088867 416.98179687 682.62927734 416.71484375 683.30761719 C415.56530244 686.21758994 414.39877073 689.12019611 413.22265625 692.01953125 C411.76358877 695.63061032 410.34705566 699.25755979 408.93359375 702.88671875 C399.75147626 726.45462915 399.75147626 726.45462915 394.55615234 737.96728516 C392.68544953 742.12123135 390.83599187 746.28464909 388.98413086 750.44702148 C387.94139936 752.7898846 386.89675961 755.13189971 385.84985352 757.47290039 C383.45054147 762.85189488 381.09914114 768.24155309 378.85546875 773.6875 C377.03928866 778.07961679 375.09873975 782.33028109 372.9375 786.5625 C372.34195313 787.738125 371.74640625 788.91375 371.1328125 790.125 C370.19293443 791.95978591 369.25128598 793.79367222 368.3046875 795.625 C366.60274103 798.94848602 365.09785741 802.2665763 363.75 805.75 C359.36287655 816.92345504 353.9878764 827.7180849 348.20214844 838.22729492 C346.67143522 841.02366795 345.28925763 843.80535615 344.03515625 846.73828125 C342.31296187 850.74797044 340.32213412 854.53858409 338.25 858.375 C334.19564927 865.95691616 330.31381793 873.60631869 326.5 881.3125 C325.18985163 883.93867771 323.87620193 886.5630985 322.5625 889.1875 C321.68271484 890.94707031 321.68271484 890.94707031 320.78515625 892.7421875 C320.36105469 893.59039063 319.93695312 894.43859375 319.5 895.3125 C318.84 895.3125 318.18 895.3125 317.5 895.3125 C317.26796875 896.28703125 317.0359375 897.2615625 316.796875 898.265625 C315.46449196 902.91727806 313.15666623 906.89109308 310.75 911.0625 C309.83702763 912.67566131 308.92426601 914.28894192 308.01171875 915.90234375 C307.5739209 916.67046387 307.13612305 917.43858398 306.68505859 918.22998047 C303.38220497 924.03412992 300.22104647 929.9109897 297.1484375 935.83984375 C290.69265417 948.28679415 283.93672877 960.5293662 276.98535156 972.70605469 C274.89215841 976.37912012 272.81949184 980.0635452 270.75 983.75 C270.39260742 984.38550781 270.03521484 985.02101563 269.66699219 985.67578125 C267.88650499 988.84181714 266.1094048 992.0097141 264.3359375 995.1796875 C255.87933163 1010.28103764 247.16259985 1025.22567855 238.33911133 1040.11523438 C234.83456424 1046.034902 231.37096726 1051.97636877 227.9375 1057.9375 C223.67719845 1065.32925887 219.31877773 1072.65769162 214.91430664 1079.96435547 C211.69491973 1085.30787934 208.52079487 1090.67538841 205.375 1096.0625 C201.75305426 1102.25504518 198.007255 1108.35821407 194.18359375 1114.42797852 C191.35777648 1118.91940624 188.59509756 1123.44382192 185.875 1128 C179.0833627 1139.36047691 172.10251879 1150.55595297 164.80371094 1161.59838867 C164.26133789 1162.42443604 163.71896484 1163.2504834 163.16015625 1164.1015625 C162.67168213 1164.84100098 162.18320801 1165.58043945 161.67993164 1166.34228516 C160.35024482 1168.40154973 160.35024482 1168.40154973 159.5 1171.3125 C158.84 1171.3125 158.18 1171.3125 157.5 1171.3125 C157.5 1172.3025 157.5 1173.2925 157.5 1174.3125 C156.84 1174.3125 156.18 1174.3125 155.5 1174.3125 C155.24476563 1175.01375 154.98953125 1175.715 154.7265625 1176.4375 C153.37024365 1179.61664226 151.71212277 1182.38481431 149.875 1185.3125 C149.15734771 1186.4608098 148.439906 1187.60925123 147.72265625 1188.7578125 C147.35543457 1189.34336914 146.98821289 1189.92892578 146.60986328 1190.53222656 C145.51851277 1192.28280463 144.44213019 1194.04161964 143.37109375 1195.8046875 C137.61945225 1205.25615152 137.61945225 1205.25615152 134.5625 1209.4375 C132.37926509 1212.1812917 132.37926509 1212.1812917 131.5 1215.3125 C130.84 1215.3125 130.18 1215.3125 129.5 1215.3125 C129.22929688 1216.03695313 128.95859375 1216.76140625 128.6796875 1217.5078125 C127.52452549 1220.25419106 126.18711271 1222.6541255 124.625 1225.1875 C122.17858423 1229.19290622 119.8093437 1233.22673808 117.5 1237.3125 C116.84 1237.3125 116.18 1237.3125 115.5 1237.3125 C115.27183594 1237.97378906 115.04367187 1238.63507813 114.80859375 1239.31640625 C113.10200664 1243.22372658 110.86566544 1246.67062168 108.5625 1250.25 C105.61717968 1254.8416129 102.84259257 1259.37218101 100.5 1264.3125 C99.84 1264.3125 99.18 1264.3125 98.5 1264.3125 C98.231875 1265.01375 97.96375 1265.715 97.6875 1266.4375 C96.4318551 1269.4774824 94.99764877 1272.3852774 93.5 1275.3125 C92.84 1275.3125 92.18 1275.3125 91.5 1275.3125 C91.23662842 1276.03163574 90.97325684 1276.75077148 90.7019043 1277.49169922 C89.46667267 1280.39071734 88.00604662 1282.81845785 86.26953125 1285.4453125 C85.63080078 1286.41726563 84.99207031 1287.38921875 84.33398438 1288.390625 C83.66689453 1289.39609375 82.99980469 1290.4015625 82.3125 1291.4375 C81.00589228 1293.41886334 79.69990069 1295.40063313 78.39453125 1297.3828125 C77.74524658 1298.36765625 77.09596191 1299.3525 76.42700195 1300.3671875 C73.97552783 1304.11412578 71.57421651 1307.89154181 69.17700195 1311.67333984 C66.54144368 1315.82101563 63.8666646 1319.94290211 61.1875 1324.0625 C60.6291748 1324.92157959 60.07084961 1325.78065918 59.49560547 1326.66577148 C55.66741414 1332.54575534 51.79341797 1338.3931666 47.88745117 1344.22167969 C45.5448968 1347.72375769 43.24945848 1351.24998552 41 1354.8125 C37.04745837 1361.06991954 32.9261148 1367.21141069 28.80712891 1373.35986328 C27.08166536 1375.93742351 25.36123187 1378.5183176 23.64135742 1381.09960938 C22.79952225 1382.36293018 21.95723956 1383.62595289 21.11450195 1384.88867188 C19.19421807 1387.76626096 17.27942098 1390.64701782 15.375 1393.53515625 C10.92884375 1400.26517792 6.29871748 1406.82912639 1.5 1413.3125 C-1.95893723 1410.02083434 -4.72286001 1406.75712715 -7.3125 1402.75 C-8.00214844 1401.69296875 -8.69179687 1400.6359375 -9.40234375 1399.546875 C-10.09457031 1398.47953125 -10.78679687 1397.4121875 -11.5 1396.3125 C-12.78867331 1394.37300777 -14.08031699 1392.43548571 -15.375 1390.5 C-17.56510417 1387.21484375 -19.75520833 1383.9296875 -21.9453125 1380.64453125 C-22.57360962 1379.702146 -22.57360962 1379.702146 -23.21459961 1378.74072266 C-24.07493851 1377.4501326 -24.93512614 1376.15944169 -25.79516602 1374.86865234 C-27.67902043 1372.04161218 -29.56475625 1369.21594726 -31.45703125 1366.39453125 C-36.23686108 1359.2600063 -40.91694462 1352.06356776 -45.58789062 1344.85742188 C-48.79189189 1339.92053155 -52.02733795 1335.00816073 -55.3125 1330.125 C-60.54747522 1322.3340734 -65.57986262 1314.41352239 -70.61645508 1306.4934082 C-74.51819736 1300.36753144 -78.49003854 1294.29621253 -82.53125 1288.26147461 C-85.70300886 1283.51052281 -88.82053745 1278.7245125 -91.9375 1273.9375 C-92.59145752 1272.93364258 -93.24541504 1271.92978516 -93.91918945 1270.89550781 C-101.26543509 1259.61094672 -108.53388575 1248.28108123 -115.71435547 1236.89038086 C-118.98529472 1231.7032838 -122.27221588 1226.5267139 -125.57006836 1221.35668945 C-131.7715803 1211.6342967 -137.91333843 1201.87648535 -144.0168457 1192.09228516 C-150.93422146 1181.00529667 -157.89264825 1169.94400432 -164.9375 1158.9375 C-174.61839127 1143.72467086 -183.92482067 1128.30103245 -193.06005859 1112.75585938 C-195.04394592 1109.38950734 -197.04876361 1106.0360612 -199.0625 1102.6875 C-199.41521973 1102.10097656 -199.76793945 1101.51445313 -200.13134766 1100.91015625 C-200.86196761 1099.69585864 -201.59276581 1098.48166826 -202.32373047 1097.26757812 C-204.09700659 1094.32021508 -205.86614505 1091.37037364 -207.63549805 1088.4206543 C-208.63286431 1086.75794126 -209.63042459 1085.09534458 -210.62817383 1083.43286133 C-213.5279117 1078.60118165 -216.4252738 1073.76809071 -219.3203125 1068.93359375 C-220.63008856 1066.74732408 -221.93998441 1064.56112616 -223.25 1062.375 C-224.21208374 1060.76915039 -224.21208374 1060.76915039 -225.19360352 1059.13085938 C-228.44621016 1053.70914454 -231.72364125 1048.30648701 -235.0625 1042.9375 C-237.8602374 1038.41900368 -240.45279716 1033.82698609 -242.96484375 1029.14453125 C-244.93561533 1025.50888393 -246.99336817 1021.92595718 -249.05126953 1018.33911133 C-256.79170888 1004.83546853 -264.43600215 991.27639103 -271.9765625 977.66015625 C-274.22858818 973.5948112 -276.4961038 969.53898337 -278.78344727 965.4934082 C-284.28180061 955.76706586 -289.6243258 945.95766062 -294.96044922 936.14160156 C-296.45098042 933.40257911 -297.94535392 930.66569762 -299.44140625 927.9296875 C-302.46793564 922.39442414 -305.48578191 916.8544759 -308.5 911.3125 C-309.07041016 910.26481445 -309.64082031 909.21712891 -310.22851562 908.13769531 C-316.65441407 896.32176729 -323.00746427 884.48946563 -328.95800781 872.42602539 C-331.6681773 866.93843242 -334.49147156 861.52320696 -337.375 856.125 C-345.36929374 841.09883542 -352.5014023 825.6306897 -359.70141602 810.21264648 C-361.9051821 805.51461527 -364.21545079 800.87782614 -366.5625 796.25 C-369.5605524 790.32806481 -372.30793936 784.33308922 -374.92822266 778.23535156 C-376.84514664 773.77956343 -378.85687158 769.38147576 -380.9375 765 C-384.03921325 758.44647913 -386.86392052 751.79110199 -389.65112305 745.09863281 C-391.76655982 740.02572739 -393.95445032 735.000626 -396.296875 730.02734375 C-402.36405451 716.33679258 -407.40687288 702.14189976 -412.78521729 688.16723633 C-413.42444323 686.50855663 -414.06629414 684.8508891 -414.70849609 683.19335938 C-417.39005935 676.26306983 -419.97713596 669.30212106 -422.5 662.3125 C-422.74365295 661.63799805 -422.98730591 660.96349609 -423.23834229 660.26855469 C-430.96743411 638.81805233 -437.8954722 617.20205517 -444.0625 595.25 C-444.35200531 594.22706848 -444.64151062 593.20413696 -444.93978882 592.15020752 C-448.88202172 578.15902135 -452.14770515 564.12037204 -454.98245239 549.86514282 C-455.65481263 546.5489348 -456.4014438 543.25327985 -457.1484375 539.953125 C-458.7510389 532.50136657 -459.80324106 524.98848983 -460.80761719 517.43701172 C-461.12296248 515.07774376 -461.45157107 512.72058371 -461.78125 510.36328125 C-464.03557323 493.88588485 -464.73281051 477.43228507 -464.75 460.8125 C-464.75133942 460.0292334 -464.75267883 459.2459668 -464.75405884 458.43896484 C-464.74316303 428.55590047 -461.48845769 398.69949773 -454.98022461 369.53540039 C-454.47371321 367.19082171 -454.01664503 364.83962484 -453.5625 362.484375 C-447.40696346 331.54634546 -436.47870443 300.9848174 -423.5 272.3125 C-423.08927246 271.3961377 -422.67854492 270.47977539 -422.25537109 269.53564453 C-407.1853028 236.12415603 -387.39754925 204.87612043 -364.5 176.3125 C-363.98002441 175.65958984 -363.46004883 175.00667969 -362.92431641 174.33398438 C-356.23445154 165.93996445 -349.41408342 157.77478161 -342.04980469 149.95947266 C-340.2685509 148.06653976 -338.49747985 146.16432425 -336.7265625 144.26171875 C-335.4013763 142.84083367 -334.0758577 141.42025851 -332.75 140 C-332.13592285 139.34193359 -331.5218457 138.68386719 -330.88916016 138.00585938 C-320.37021766 126.78641033 -320.37021766 126.78641033 -314.6875 121.9375 C-311.69769527 119.36501027 -308.77790107 116.73259885 -305.875 114.0625 C-300.22815103 108.96909412 -294.27709712 104.31283413 -288.25830078 99.67236328 C-286.59088342 98.3827889 -284.93289227 97.08210158 -283.27734375 95.77734375 C-264.27268386 80.86635769 -243.763479 67.75392628 -222.5 56.3125 C-221.22431152 55.62438232 -221.22431152 55.62438232 -219.92285156 54.92236328 C-199.36648806 43.88741629 -178.45958725 34.21330388 -156.5 26.3125 C-155.8507959 26.07724609 -155.2015918 25.84199219 -154.53271484 25.59960938 C-124.5641958 14.84959062 -92.97604574 7.75075584 -61.5 3.3125 C-60.33936035 3.14588867 -59.1787207 2.97927734 -57.98291016 2.80761719 C-38.69699705 0.18105691 -19.4365759 0.02785977 0 0 Z " fill="#808181" transform="translate(1042.5,275.6875)"/>
<path d="M0 0 C2.51822891 0.01074809 5.03574716 0.00001674 7.55395508 -0.01269531 C33.46284508 -0.03709029 57.97234337 5.65939829 81.9543457 15.26074219 C82.68733887 15.54675293 83.42033203 15.83276367 84.17553711 16.12744141 C134.27492346 35.80724262 171.57010458 78.72669816 193.5402832 126.72558594 C201.0433499 144.37168725 205.65452827 163.25805147 207.9543457 182.26074219 C208.0471582 182.93016846 208.1399707 183.59959473 208.2355957 184.28930664 C211.50331567 209.57620751 208.65196921 235.77727446 201.9543457 260.26074219 C201.69596924 261.22125488 201.69596924 261.22125488 201.43237305 262.20117188 C187.33328698 313.57235713 151.79078842 357.94297694 106.07592773 384.84765625 C57.05025695 412.74562695 0.02201636 419.64543329 -54.32299805 404.91699219 C-97.23091155 392.75389319 -135.61157495 365.31014742 -162.5456543 329.94824219 C-163.11098877 329.20622559 -163.67632324 328.46420898 -164.25878906 327.69970703 C-171.05599978 318.69738768 -176.89506378 309.29616793 -182.0456543 299.26074219 C-182.34584473 298.68179199 -182.64603516 298.1028418 -182.95532227 297.50634766 C-206.74530081 251.12253475 -211.15207214 194.95516512 -195.48413086 145.26000977 C-177.59814839 91.68621848 -140.78166042 46.50236355 -89.9206543 20.94824219 C-87.31332749 19.67850552 -84.68736125 18.45715805 -82.0456543 17.26074219 C-81.36825195 16.95297852 -80.69084961 16.64521484 -79.99291992 16.328125 C-54.74041261 5.02473422 -27.59418988 -0.13964943 0 0 Z " fill="#FEFEFE" transform="translate(1041.045654296875,508.7392578125)"/>
<path d="M0 0 C0.33 0 0.66 0 1 0 C1 18.48 1 36.96 1 56 C-0.88415395 52.23169211 -1.30558652 50.43095329 -1.5625 46.375 C-1.74338455 42.54278845 -1.74338455 42.54278845 -3 39 C-2.95850376 36.41489635 -2.85421424 33.86746606 -2.6953125 31.2890625 C-2.65187714 30.52451752 -2.60844177 29.75997253 -2.56369019 28.97225952 C-2.47042173 27.35309521 -2.37440939 25.734087 -2.27587891 24.11523438 C-2.12604722 21.64228422 -1.98617429 19.16891932 -1.84765625 16.6953125 C-1.75580375 15.12236095 -1.66337464 13.54944295 -1.5703125 11.9765625 C-1.50772751 10.86856796 -1.50772751 10.86856796 -1.44387817 9.7381897 C-1.23568602 6.39328102 -0.99355628 3.2126031 0 0 Z " fill="#727074" transform="translate(837,687)"/>
<path d="M0 0 C0.495 1.485 0.495 1.485 1 3 C-10.04528196 3.13379211 -20.98080785 2.76370639 -32 2 C-32 1.67 -32 1.34 -32 1 C-10.46808511 -0.19148936 -10.46808511 -0.19148936 0 0 Z " fill="#767677" transform="translate(1065,506)"/>
<path d="M0 0 C2.5843218 2.5843218 3.10401163 4.89375577 4.1875 8.375 C4.55230469 9.51710938 4.91710937 10.65921875 5.29296875 11.8359375 C5.95860385 14.81474653 6.07938697 16.20871903 5 19 C5 18.01 5 17.02 5 16 C3.68 16.33 2.36 16.66 1 17 C0.855625 16.0925 0.71125 15.185 0.5625 14.25 C0.13590527 11.78523044 -0.35074221 9.41152893 -1 7 C-0.34 7 0.32 7 1 7 C0.67 4.69 0.34 2.38 0 0 Z " fill="#757879" transform="translate(842,765)"/>
<path d="M0 0 C1.72251754 4.0845326 0.07280563 7.36973696 -1.4375 11.25 C-1.68048828 11.8996875 -1.92347656 12.549375 -2.17382812 13.21875 C-2.77285994 14.81616817 -3.38514321 16.40860594 -4 18 C-4.33 18 -4.66 18 -5 18 C-5.02712066 16.56260487 -5.04645067 15.12506137 -5.0625 13.6875 C-5.07410156 12.88699219 -5.08570313 12.08648438 -5.09765625 11.26171875 C-5 9 -5 9 -4 6 C-3.34 6 -2.68 6 -2 6 C-2 4.68 -2 3.36 -2 2 C-1.34 2 -0.68 2 0 2 C0 1.34 0 0.68 0 0 Z " fill="#777977" transform="translate(1479,895)"/>
<path d="M0 0 C0.93423645 3.01031744 1.04449911 3.86650268 0 7 C-0.598125 6.814375 -1.19625 6.62875 -1.8125 6.4375 C-4.16408762 5.77906313 -4.16408762 5.77906313 -7 7 C-7.33 7.99 -7.66 8.98 -8 10 C-8.66 10 -9.32 10 -10 10 C-9.65514457 7.1157546 -9.21744593 6.1792182 -6.93359375 4.296875 C-6.10988281 3.78640625 -5.28617188 3.2759375 -4.4375 2.75 C-3.61121094 2.22921875 -2.78492188 1.7084375 -1.93359375 1.171875 C-1.29550781 0.78515625 -0.65742187 0.3984375 0 0 Z " fill="#7A7B7B" transform="translate(1159,885)"/>
<path d="M0 0 C2.4932534 0.99730136 3.77467439 1.65074531 5.25 3.9375 C6 6 6 6 6 9 C5.34 9 4.68 9 4 9 C4.350625 9.763125 4.70125 10.52625 5.0625 11.3125 C6 14 6 14 5 17 C4.16080602 14.73117913 3.32848276 12.46022973 2.5 10.1875 C2.26152344 9.54490234 2.02304687 8.90230469 1.77734375 8.24023438 C0.72931254 5.35066261 0 3.09923939 0 0 Z " fill="#777777" transform="translate(614,917)"/>
<path d="M0 0 C2 1 2 1 3.125 3.6875 C3.98889074 6.9579435 4.16013991 9.63706182 4 13 C1.65409087 10.86735534 0.0358888 9.02134234 -1 6 C-0.625 2.75 -0.625 2.75 0 0 Z " fill="#797979" transform="translate(747,1203)"/>
<path d="M0 0 C-1.56641751 4.30764815 -3.68336156 8.06171464 -6 12 C-6.66 11.67 -7.32 11.34 -8 11 C-8 8.69 -8 6.38 -8 4 C-7.34 4 -6.68 4 -6 4 C-5.67 4.33 -5.34 4.66 -5 5 C-5 3.68 -5 2.36 -5 1 C-2 0 -2 0 0 0 Z " fill="#767676" transform="translate(1259,1351)"/>
<path d="M0 0 C0.66 0 1.32 0 2 0 C1.52269162 1.4589426 1.04308958 2.91713496 0.5625 4.375 C0.29566406 5.18710938 0.02882813 5.99921875 -0.24609375 6.8359375 C-1 9 -1 9 -2 11 C-2.66 11 -3.32 11 -4 11 C-4 10.34 -4 9.68 -4 9 C-4.66 9 -5.32 9 -6 9 C-5.67 9.99 -5.34 10.98 -5 12 C-5.99 11.67 -6.98 11.34 -8 11 C-7.34 9.68 -6.68 8.36 -6 7 C-5.01 7.33 -4.02 7.66 -3 8 C-2.814375 6.8553125 -2.814375 6.8553125 -2.625 5.6875 C-2 3 -2 3 0 0 Z " fill="#787979" transform="translate(1392,1105)"/>
<path d="M0 0 C0.66 0.66 1.32 1.32 2 2 C1.67 2.66 1.34 3.32 1 4 C1.66 4.33 2.32 4.66 3 5 C3.8125 6.875 3.8125 6.875 4 9 C2.5625 10.75 2.5625 10.75 1 12 C-2 6.375 -2 6.375 -2 3 C-1.34 3 -0.68 3 0 3 C0 2.01 0 1.02 0 0 Z " fill="#7B7B7A" transform="translate(667,1042)"/>
<path d="M0 0 C0.66 0 1.32 0 2 0 C2.6875 2.3125 2.6875 2.3125 3 5 C2.525625 5.45375 2.05125 5.9075 1.5625 6.375 C-0.45673541 8.47500483 -0.4797348 9.82034018 -0.6875 12.6875 C-0.75324219 13.49574219 -0.81898438 14.30398438 -0.88671875 15.13671875 C-0.92410156 15.75160156 -0.96148438 16.36648438 -1 17 C-1.33 17 -1.66 17 -2 17 C-2.05441656 15.10448978 -2.09298035 13.2085208 -2.125 11.3125 C-2.14820313 10.25675781 -2.17140625 9.20101562 -2.1953125 8.11328125 C-1.99858729 4.97748141 -1.33057654 2.82354627 0 0 Z " fill="#8A8C8B" transform="translate(581,755)"/>
<path d="M0 0 C0.66 0.33 1.32 0.66 2 1 C2.82200425 7.24723226 -0.07448606 11.71317837 -3 17 C-3.66 16.67 -4.32 16.34 -5 16 C-4.6390625 15.01257813 -4.278125 14.02515625 -3.90625 13.0078125 C-3.43733319 11.71360209 -2.96859231 10.41932794 -2.5 9.125 C-2.26152344 8.47402344 -2.02304688 7.82304688 -1.77734375 7.15234375 C-0.45122467 3.66542411 -0.45122467 3.66542411 0 0 Z " fill="#747574" transform="translate(1438,1000)"/>
<path d="M0 0 C0.66 0 1.32 0 2 0 C1.37183502 3.94949704 0.1354471 7.19892028 -1.5625 10.8125 C-2.01753906 11.78832031 -2.47257812 12.76414062 -2.94140625 13.76953125 C-3.29074219 14.50558594 -3.64007812 15.24164062 -4 16 C-4.66 15.67 -5.32 15.34 -6 15 C-4 10 -2 5 0 0 Z " fill="#787878" transform="translate(1432,1018)"/>
<path d="M0 0 C0 3.34419152 -0.47519394 4.06840321 -2.375 6.6875 C-2.81585937 7.31011719 -3.25671875 7.93273437 -3.7109375 8.57421875 C-4.13632812 9.04472656 -4.56171875 9.51523437 -5 10 C-5.66 10 -6.32 10 -7 10 C-7 10.66 -7 11.32 -7 12 C-7.99 11.67 -8.98 11.34 -10 11 C-6.79239749 7.19364503 -3.59253891 3.45436433 0 0 Z " fill="#878788" transform="translate(724,401)"/>
<path d="M0 0 C1 3 1 3 1 6 C0.34 6 -0.32 6 -1 6 C-1 6.66 -1 7.32 -1 8 C-3 7 -5 6 -7 5 C-2.25 0 -2.25 0 0 0 Z " fill="#777A7A" transform="translate(1188,863)"/>
<path d="M0 0 C2.20914 3.31371 2.22481553 4.3446021 2.125 8.1875 C2.10695313 9.08855469 2.08890625 9.98960937 2.0703125 10.91796875 C2.03550781 11.94857422 2.03550781 11.94857422 2 13 C1.34 11.68 0.68 10.36 0 9 C-0.99 9 -1.98 9 -3 9 C-2.5020163 5.26512223 -2.12508244 3.18762365 0 0 Z " fill="#797A7A" transform="translate(1501,662)"/>
<path d="M0 0 C0.66 0.66 1.32 1.32 2 2 C1.67 2.66 1.34 3.32 1 4 C1.66 4 2.32 4 3 4 C1.83269511 7.95087809 0.55162546 10.78425284 -2 14 C-1.85923685 12.0412957 -1.7122324 10.08303907 -1.5625 8.125 C-1.48128906 7.03445313 -1.40007813 5.94390625 -1.31640625 4.8203125 C-1 2 -1 2 0 0 Z " fill="#777979" transform="translate(859,611)"/>
<path d="M0 0 C3 1 3 1 4 3 C9.61 3.33 15.22 3.66 21 4 C21 4.33 21 4.66 21 5 C14.4 5 7.8 5 1 5 C0.67 3.35 0.34 1.7 0 0 Z " fill="#8C8D8E" transform="translate(1029,504)"/>
<path d="M0 0 C1.24592785 3.73778355 0.54425229 4.9910133 -0.8125 8.625 C-1.16957031 9.60726562 -1.52664063 10.58953125 -1.89453125 11.6015625 C-3 14 -3 14 -5 15 C-4.43174347 9.45949887 -2.37113483 4.96284034 0 0 Z " fill="#767877" transform="translate(1455,963)"/>
<path d="M0 0 C0.33 1.32 0.66 2.64 1 4 C0.443125 4.061875 -0.11375 4.12375 -0.6875 4.1875 C-3.9283878 5.32619031 -5.6312403 7.56890452 -8 10 C-8.66 10 -9.32 10 -10 10 C-8.5741914 6.54804233 -6.90253666 4.8985744 -3.875 2.75 C-3.15054687 2.22921875 -2.42609375 1.7084375 -1.6796875 1.171875 C-1.12539062 0.78515625 -0.57109375 0.3984375 0 0 Z " fill="#777979" transform="translate(1175,873)"/>
<path d="M0 0 C2 1 2 1 3.125 4.0625 C3.41375 5.031875 3.7025 6.00125 4 7 C4.66 7 5.32 7 6 7 C5 10 5 10 3 12 C0.01485372 7.89542386 -0.2954439 5.02254631 0 0 Z " fill="#868888" transform="translate(584,802)"/>
<path d="M0 0 C0.33 0 0.66 0 1 0 C1.12375 0.78375 1.2475 1.5675 1.375 2.375 C1.79117993 5.14057822 1.79117993 5.14057822 4 7 C3.195625 7.28875 2.39125 7.5775 1.5625 7.875 C-1.1326468 8.73262568 -1.1326468 8.73262568 -2 11 C-1.85892253 9.54119891 -1.71197585 8.08296449 -1.5625 6.625 C-1.48128906 5.81289063 -1.40007813 5.00078125 -1.31640625 4.1640625 C-1 2 -1 2 0 0 Z " fill="#777B7B" transform="translate(595,616)"/>
<path d="M0 0 C0.66 0 1.32 0 2 0 C2 0.66 2 1.32 2 2 C2.99 2.33 3.98 2.66 5 3 C4.67 3.66 4.34 4.32 4 5 C4.66 5 5.32 5 6 5 C6 4.34 6 3.68 6 3 C6.66 3.33 7.32 3.66 8 4 C8 5.32 8 6.64 8 8 C7.01 8.33 6.02 8.66 5 9 C4.16396622 7.68921847 3.3312426 6.37632511 2.5 5.0625 C2.0359375 4.33160156 1.571875 3.60070312 1.09375 2.84765625 C0 1 0 1 0 0 Z " fill="#7A7A7B" transform="translate(1219,606)"/>
<path d="M0 0 C2.31 0 4.62 0 7 0 C6.01 0.66 5.02 1.32 4 2 C4.33 2.66 4.66 3.32 5 4 C1.37 3.67 -2.26 3.34 -6 3 C-6 2.67 -6 2.34 -6 2 C-4.02 2 -2.04 2 0 2 C0 1.34 0 0.68 0 0 Z " fill="#767676" transform="translate(1074,507)"/>
<path d="M0 0 C0.66 0 1.32 0 2 0 C2 0.66 2 1.32 2 2 C2.66 2 3.32 2 4 2 C3.34 3.98 2.68 5.96 2 8 C0.35 8.33 -1.3 8.66 -3 9 C-2.67 8.34 -2.34 7.68 -2 7 C-1.01 7 -0.02 7 1 7 C1 6.34 1 5.68 1 5 C0.34 4.67 -0.32 4.34 -1 4 C-0.67 2.68 -0.34 1.36 0 0 Z " fill="#777877" transform="translate(1299,1273)"/>
<path d="M0 0 C3.55780196 0.60990891 6.6828589 1.5783681 10 3 C9.67 3.66 9.34 4.32 9 5 C4.545 4.01 4.545 4.01 0 3 C0 2.01 0 1.02 0 0 Z " fill="#7A7779" transform="translate(962,905)"/>
<path d="M0 0 C2 2 2 2 2 5 C1.01 5.33 0.02 5.66 -1 6 C-1 6.66 -1 7.32 -1 8 C-3 7 -3 7 -4 5 C-2.68 3.35 -1.36 1.7 0 0 Z " fill="#777B7C" transform="translate(1203,845)"/>
<path d="M0 0 C5.34844008 0.53484401 9.35796103 2.46690767 14 5 C10.61682513 5.97591583 8.4342662 5.85856655 5 5 C4.67 4.01 4.34 3.02 4 2 C1.99983534 0.79117904 1.99983534 0.79117904 0 0 Z " fill="#767776" transform="translate(1225,313)"/>
<path d="M0 0 C0.66 0.33 1.32 0.66 2 1 C1.67 1.66 1.34 2.32 1 3 C1.99 3.33 2.98 3.66 4 4 C3.01 5.485 3.01 5.485 2 7 C1.67 6.34 1.34 5.68 1 5 C0.01 5.33 -0.98 5.66 -2 6 C-2.33 4.35 -2.66 2.7 -3 1 C-2.01 0.67 -1.02 0.34 0 0 Z " fill="#7A7A7B" transform="translate(1243,649)"/>
<path d="M0 0 C2.49505962 2.49505962 2.35948376 3.67328888 2.625 7.125 C2.69976563 8.03507813 2.77453125 8.94515625 2.8515625 9.8828125 C2.92503906 10.93082031 2.92503906 10.93082031 3 12 C2.71125 11.360625 2.4225 10.72125 2.125 10.0625 C1.17176549 7.84793921 1.17176549 7.84793921 -1 7 C-0.67 4.69 -0.34 2.38 0 0 Z " fill="#787A79" transform="translate(1493,625)"/>
<path d="M0 0 C0.66 0.33 1.32 0.66 2 1 C1.38722388 3.96175123 0.74627478 5.38058783 -1 8 C-1.99 8 -2.98 8 -4 8 C-2.87548273 5.0280615 -1.77706209 2.66559313 0 0 Z " fill="#F4F4F4" transform="translate(661,469)"/>
<path d="M0 0 C0.66 0.33 1.32 0.66 2 1 C2 1.66 2 2.32 2 3 C2.66 3 3.32 3 4 3 C3.34 4.32 2.68 5.64 2 7 C0.62437146 5.71034824 -0.70766393 4.37310707 -2 3 C-2 2.34 -2 1.68 -2 1 C-1.34 0.67 -0.68 0.34 0 0 Z " fill="#747474" transform="translate(1042,1682)"/>
<path d="M0 0 C0.99 0.33 1.98 0.66 3 1 C2.34 1 1.68 1 1 1 C1.34786708 2.97536745 1.34786708 2.97536745 2 5 C2.66 5.33 3.32 5.66 4 6 C3.01 6.99 2.02 7.98 1 9 C-2 4.25 -2 4.25 -2 2 C-1.34 2 -0.68 2 0 2 C0 1.34 0 0.68 0 0 Z " fill="#757575" transform="translate(795,1289)"/>
<path d="M0 0 C1 3 1 3 0.22265625 5.04296875 C-0.16019531 5.75066406 -0.54304688 6.45835938 -0.9375 7.1875 C-1.31777344 7.90292969 -1.69804688 8.61835937 -2.08984375 9.35546875 C-2.54037109 10.16951172 -2.54037109 10.16951172 -3 11 C-3.66 10.67 -4.32 10.34 -5 10 C-5 9.01 -5 8.02 -5 7 C-4.34 6.67 -3.68 6.34 -3 6 C-2.34786708 3.97536745 -2.34786708 3.97536745 -2 2 C-1.34 2 -0.68 2 0 2 C0 1.34 0 0.68 0 0 Z " fill="#767876" transform="translate(1417,1053)"/>
<path d="M0 0 C0.99 0 1.98 0 3 0 C3.33 0.66 3.66 1.32 4 2 C4.99 2.33 5.98 2.66 7 3 C6.01 3.99 5.02 4.98 4 6 C3.01 5.67 2.02 5.34 1 5 C0.67 3.35 0.34 1.7 0 0 Z " fill="#7A7B7A" transform="translate(905,553)"/>
<path d="M0 0 C-0.6875 1.9375 -0.6875 1.9375 -2 4 C-4.625 4.75 -4.625 4.75 -7 5 C-7.33 3.68 -7.66 2.36 -8 1 C-5.23735711 0.40267181 -2.83967231 0 0 0 Z " fill="#868787" transform="translate(941,287)"/>
<path d="M0 0 C0.33 0 0.66 0 1 0 C0.88590407 1.45922693 0.75834456 2.91740598 0.625 4.375 C0.55539062 5.18710937 0.48578125 5.99921875 0.4140625 6.8359375 C0 9 0 9 -2 11 C-2.66 9.68 -3.32 8.36 -4 7 C-3.01 6.67 -2.02 6.34 -1 6 C-0.67 4.02 -0.34 2.04 0 0 Z " fill="#787A78" transform="translate(1486,870)"/>
<path d="M0 0 C1.65 0.99 3.3 1.98 5 3 C1.5980513 5.09350689 -1.05272412 5.17942163 -5 5 C-3.35 3.35 -1.7 1.7 0 0 Z " fill="#757777" transform="translate(1007,507)"/>
<path d="M0 0 C0.66 0 1.32 0 2 0 C0.68775452 3.93673644 -0.91910327 6.22719294 -4 9 C-4.33 7.35 -4.66 5.7 -5 4 C-4.360625 3.71125 -3.72125 3.4225 -3.0625 3.125 C-0.84793921 2.17176549 -0.84793921 2.17176549 0 0 Z " fill="#727272" transform="translate(1121,1568)"/>
<path d="M0 0 C0.66 0.33 1.32 0.66 2 1 C1.21302675 4.41021743 0.12880057 7.68885166 -1 11 C-1.66 11 -2.32 11 -3 11 C-2.69078116 9.54096742 -2.37751201 8.08279278 -2.0625 6.625 C-1.88847656 5.81289063 -1.71445313 5.00078125 -1.53515625 4.1640625 C-1 2 -1 2 0 0 Z " fill="#757A7A" transform="translate(1239,780)"/>
<path d="M0 0 C2.97 0.495 2.97 0.495 6 1 C6 1.66 6 2.32 6 3 C7.32 3.33 8.64 3.66 10 4 C10 4.66 10 5.32 10 6 C6.64566891 5.05066101 3.30753495 4.10251165 0 3 C0 2.01 0 1.02 0 0 Z " fill="#888988" transform="translate(1177,295)"/>
<path d="M0 0 C1.32 0 2.64 0 4 0 C3.34 1.98 2.68 3.96 2 6 C0.68 5.34 -0.64 4.68 -2 4 C-1.34 2.68 -0.68 1.36 0 0 Z " fill="#767677" transform="translate(1147,1524)"/>
<path d="M0 0 C2.475 0.495 2.475 0.495 5 1 C5.33 1.99 5.66 2.98 6 4 C4.68 4.33 3.36 4.66 2 5 C1.34 3.35 0.68 1.7 0 0 Z " fill="#7B7B7A" transform="translate(898,1465)"/>
<path d="M0 0 C0.33 0.66 0.66 1.32 1 2 C1.66 2 2.32 2 3 2 C3.6875 3.8125 3.6875 3.8125 4 6 C2.5625 7.75 2.5625 7.75 1 9 C0.855625 8.401875 0.71125 7.80375 0.5625 7.1875 C0.1127561 5.43849596 -0.42892341 3.71322977 -1 2 C-0.67 1.34 -0.34 0.68 0 0 Z " fill="#787978" transform="translate(1316,1241)"/>
<path d="M0 0 C0.66 0 1.32 0 2 0 C2.061875 0.61875 2.12375 1.2375 2.1875 1.875 C2.828919 4.27761141 2.828919 4.27761141 5.5625 5.25 C6.366875 5.4975 7.17125 5.745 8 6 C7.67 6.66 7.34 7.32 7 8 C5.1875 7.9375 5.1875 7.9375 3 7 C1.25 3.4375 1.25 3.4375 0 0 Z " fill="#787879" transform="translate(726,1171)"/>
<path d="M0 0 C1.32 0.33 2.64 0.66 4 1 C3.34 1 2.68 1 2 1 C2 2.65 2 4.3 2 6 C1.01 5.67 0.02 5.34 -1 5 C-1 5.66 -1 6.32 -1 7 C-1.66 6.67 -2.32 6.34 -3 6 C-2.01 4.02 -1.02 2.04 0 0 Z " fill="#F6F6F6" transform="translate(1403,1087)"/>
<path d="M0 0 C2.31 1.65 4.62 3.3 7 5 C6.67 5.99 6.34 6.98 6 8 C6 7.34 6 6.68 6 6 C5.34 6 4.68 6 4 6 C3.67 6.66 3.34 7.32 3 8 C3 7.34 3 6.68 3 6 C2.34 5.67 1.68 5.34 1 5 C0.375 2.4375 0.375 2.4375 0 0 Z " fill="#757675" transform="translate(900,863)"/>
<path d="M0 0 C1.65 0 3.3 0 5 0 C5.33 0.99 5.66 1.98 6 3 C6.33 3.66 6.66 4.32 7 5 C6.34 5.66 5.68 6.32 5 7 C0 1.125 0 1.125 0 0 Z " fill="#777877" transform="translate(1201,581)"/>
<path d="M0 0 C0.66 0 1.32 0 2 0 C2 0.66 2 1.32 2 2 C4.31 2 6.62 2 9 2 C6.64031256 4.09749995 5.45383006 4.96905704 2.25 5.1875 C1.13625 5.0946875 1.13625 5.0946875 0 5 C-0.33 4.01 -0.66 3.02 -1 2 C-0.67 1.34 -0.34 0.68 0 0 Z " fill="#878988" transform="translate(1019,505)"/>
<path d="M0 0 C3.36720387 1.39332574 4.9859524 2.9789286 7 6 C6.01 6.495 6.01 6.495 5 7 C3.29115995 5.37660195 1.62553283 3.70680947 0 2 C0 1.34 0 0.68 0 0 Z " fill="#8A8B8B" transform="translate(1361,401)"/>
<path d="M0 0 C5.63380282 3.26760563 5.63380282 3.26760563 7 6 C6.05125 5.67 5.1025 5.34 4.125 5 C1.22937548 3.89840809 1.22937548 3.89840809 -1 4 C-1 3.34 -1 2.68 -1 2 C-1.66 1.67 -2.32 1.34 -3 1 C-2.01 0.67 -1.02 0.34 0 0 Z " fill="#797A7B" transform="translate(1336,379)"/>
<path d="M0 0 C2 2 2 2 2.125 5.125 C2.08375 6.07375 2.0425 7.0225 2 8 C1.34 8 0.68 8 0 8 C-0.66 6.02 -1.32 4.04 -2 2 C-1.34 2 -0.68 2 0 2 C0 1.34 0 0.68 0 0 Z " fill="#787878" transform="translate(829,1347)"/>
<path d="M0 0 C2 1 4 2 6 3 C6 3.99 6 4.98 6 6 C5.01 6.33 4.02 6.66 3 7 C2.01 4.69 1.02 2.38 0 0 Z " fill="#767978" transform="translate(908,871)"/>
<path d="M0 0 C0.33 0.66 0.66 1.32 1 2 C1.66 2 2.32 2 3 2 C3 3.32 3 4.64 3 6 C2.34 6 1.68 6 1 6 C0.67 6.66 0.34 7.32 0 8 C-0.38063221 5.6739143 -0.71269945 3.33944736 -1 1 C-0.67 0.67 -0.34 0.34 0 0 Z " fill="#888A8A" transform="translate(594,847)"/>
<path d="M0 0 C2 3 2 3 3 6 C1.02 6.99 1.02 6.99 -1 8 C-2.2077558 4.37673261 -1.54311128 3.35853631 0 0 Z " fill="#7B7A7B" transform="translate(602,593)"/>
<path d="M0 0 C1.485 0.99 1.485 0.99 3 2 C3 2.66 3 3.32 3 4 C3.66 4 4.32 4 5 4 C4 6 4 6 1 8 C-0.35055201 5.29889598 0 2.99210994 0 0 Z " fill="#878787" transform="translate(1206,582)"/>
<path d="M0 0 C0.33 0 0.66 0 1 0 C0.88590407 1.45922693 0.75834456 2.91740598 0.625 4.375 C0.55539062 5.18710937 0.48578125 5.99921875 0.4140625 6.8359375 C0 9 0 9 -2 11 C-3.13643966 7.59068103 -2.86747764 6.99664544 -1.5625 3.8125 C-1.13130859 2.73935547 -1.13130859 2.73935547 -0.69140625 1.64453125 C-0.46324219 1.10183594 -0.23507812 0.55914063 0 0 Z " fill="#878589" transform="translate(608,574)"/>
<path d="M0 0 C0 2.62113708 -0.31292445 4.50935112 -1 7 C-1.66 7 -2.32 7 -3 7 C-3.66 8.32 -4.32 9.64 -5 11 C-4.46884894 6.48521602 -2.63379708 3.65333143 0 0 Z " fill="#767A7B" transform="translate(626,536)"/>
<path d="M0 0 C0.66 0.33 1.32 0.66 2 1 C0.8141763 4.37503669 -0.27573689 6.64722731 -3 9 C-3.125 4.25 -3.125 4.25 -2 2 C-1.34 2 -0.68 2 0 2 C0 1.34 0 0.68 0 0 Z " fill="#767675" transform="translate(1128,1556)"/>
<path d="M0 0 C2.475 0.99 2.475 0.99 5 2 C5.33 4.31 5.66 6.62 6 9 C3.72494996 6.83328568 1.76424908 4.60436769 0 2 C0 1.34 0 0.68 0 0 Z " fill="#6F6E6F" transform="translate(937,1527)"/>
<path d="M0 0 C3.65316671 1.24976756 4.78065836 1.67098753 7 5 C5.02 5 3.04 5 1 5 C0.67 3.35 0.34 1.7 0 0 Z " fill="#757978" transform="translate(921,881)"/>
<path d="M0 0 C0.99 0.33 1.98 0.66 3 1 C-0.465 3.97 -0.465 3.97 -4 7 C-3.04065919 3.16263678 -2.76390737 2.40339772 0 0 Z " fill="#F5F5F5" transform="translate(1190,856)"/>
<path d="M0 0 C0.66 0 1.32 0 2 0 C1.67 3.3 1.34 6.6 1 10 C-1.29404844 6.55892734 -1.26293056 5.03160191 -1 1 C-0.67 0.67 -0.34 0.34 0 0 Z " fill="#EEF3F3" transform="translate(588,633)"/>
<path d="M0 0 C0.66 0.33 1.32 0.66 2 1 C1.34 3.64 0.68 6.28 0 9 C-0.99 8.67 -1.98 8.34 -3 8 C-1.125 2.25 -1.125 2.25 0 0 Z " fill="#88898A" transform="translate(628,529)"/>
<path d="M0 0 C1.38232443 1.62626404 2.71937515 3.2925002 4 5 C-1.53846154 4.38461538 -1.53846154 4.38461538 -3.875 2.4375 C-4.24625 1.963125 -4.6175 1.48875 -5 1 C-2 0 -2 0 0 0 Z " fill="#7A787A" transform="translate(1125,521)"/>
<path d="M0 0 C1.32 0.33 2.64 0.66 4 1 C3.34 2.32 2.68 3.64 2 5 C0.68 4.34 -0.64 3.68 -2 3 C-1.34 2.01 -0.68 1.02 0 0 Z " fill="#7A7B7B" transform="translate(1061,1656)"/>
<path d="M0 0 C0.598125 0.350625 1.19625 0.70125 1.8125 1.0625 C1.1525 1.0625 0.4925 1.0625 -0.1875 1.0625 C-0.1875 1.7225 -0.1875 2.3825 -0.1875 3.0625 C-1.1775 3.3925 -2.1675 3.7225 -3.1875 4.0625 C-3.8475 2.7425 -4.5075 1.4225 -5.1875 0.0625 C-2.1875 -0.9375 -2.1875 -0.9375 0 0 Z " fill="#777777" transform="translate(859.1875,1394.9375)"/>
<path d="M0 0 C2.4375 0.375 2.4375 0.375 5 1 C5.33 1.66 5.66 2.32 6 3 C4.68 3 3.36 3 2 3 C1.67 3.66 1.34 4.32 1 5 C0.34 4.67 -0.32 4.34 -1 4 C-0.67 2.68 -0.34 1.36 0 0 Z " fill="#787977" transform="translate(947,898)"/>
<path d="M0 0 C4.875 1.75 4.875 1.75 6 4 C4.68 3.67 3.36 3.34 2 3 C1.67 3.99 1.34 4.98 1 6 C0.67 6 0.34 6 0 6 C0 4.02 0 2.04 0 0 Z " fill="#7B7B7B" transform="translate(1285,343)"/>
</svg>
